<svg xmlns="http://www.w3.org/2000/svg" ><path fill="#ba0bab" d="M24 24H0V0c.121.007.242.021.364.021C8.117.022 15.87.022 23.623.022c.355 0 .355 0 .355.355 0 7.753 0 15.506.001 23.259 0 .122.014.243.021.364zm-8.33-6.119c-.045-.154-.067-.254-.103-.349-.221-.578-.446-1.154-.669-1.731-1.171-3.032-2.343-6.063-3.507-9.097-.08-.21-.18-.294-.413-.287-.593.018-1.188.019-1.781 0-.234-.007-.332.08-.413.288-1.399 3.625-2.806 7.248-4.21 10.871-.033.084-.055.172-.085.269.08.016.122.033.164.033.882.002 1.764.008 2.645-.006.088-.001.215-.11.252-.199.168-.402.315-.812.459-1.223.056-.161.136-.236.32-.235 1.17.008 2.34.007 3.51.001.182-.001.262.071.314.239.125.399.276.79.401 1.189.057.18.152.246.34.243.576-.01 1.152-.003 1.729-.003.331-.003.66-.003 1.047-.003zm1.742-2.654c-.018.055-.032.079-.032.103-.002.794 0 1.588-.006 2.382-.001.166.088.179.215.179.742-.002 1.483-.005 2.225.002.17.001.228-.06.227-.229-.006-.741-.007-1.483.001-2.225.002-.183-.076-.217-.235-.214-.445.007-.89.002-1.335.002h-1.06z"/><path fill="#ba0bab" d="M10.13 10.551c.373 1.083.745 2.166 1.13 3.285H8.942c.378-1.1.752-2.191 1.127-3.282.021-.001.041-.002.061-.003z"/></svg>
