<svg xmlns="http://www.w3.org/2000/svg" viewBox="0 0 54 42"><path fill="#423228" d="M14.923 9.563c-.725 2.019-.727 3.273-.727 5.014 0 7.978 9.479 17.128 12.673 17.049 3.193-.079 12.671-9.071 12.671-17.049 0-1.784.174-2.507-.763-5.134-.936-2.628-7.7-6.395-13.002-5.994-4.554.344-10.128 4.095-10.852 6.114z"/><path fill="#5e483c" d="M35.476 6.627c-2.669-1.659-6.459-2.974-9.702-2.728-1.417.107-2.934.545-4.373 1.157 1.304 1.021 3.774 1.906 6.672 2.276 3.154.402 5.966.089 7.406-.706h-.003z"/><path fill="#659d32" d="M27.982 38.502l.184-.011c.11-.007.222-.013.332-.021.059-.004.117-.01.175-.015.113-.01.225-.019.337-.03.063-.006.126-.014.19-.021.108-.011.216-.023.324-.036.063-.007.12-.017.176-.024.114-.015.222-.029.33-.045l.131-.021c.125-.02.25-.039.376-.062.04-.007.08-.015.12-.023.131-.023.256-.045.381-.071l.108-.023c.131-.027.256-.054.387-.083l.102-.025c.131-.03.256-.06.387-.093l.091-.024c.131-.039.262-.073.393-.107l.063-.023c.142-.039.279-.079.416-.124l.057-.017.416-.135c.023-.006.04-.017.063-.023.137-.051.273-.096.41-.146l.04-.017c.142-.056.285-.107.427-.163l.028-.011c.142-.056.29-.118.433-.175l.011-.006c.148-.062.296-.124.438-.191l.023-.011c7.002-3.147 11.875-10.127 11.875-18.233 0-8.292-5.1-15.407-12.37-18.441 3.751 3.637 6.073 8.698 6.073 14.299 0 8.917-10.611 18.936-14.049 19.056-3.467.139-14.072-10.123-14.072-19.039 0-5.517 2.257-10.512 5.909-14.132C11.63 3.358 6.706 10.366 6.706 18.514c0 6.451 3.089 12.189 7.883 15.849l.002.003c.125.096.252.191.379.287l.006.006c.125.096.252.186.381.276l.011.006c.125.09.256.174.384.259.006.006.011.006.016.011.128.084.256.169.387.248l.021.017.387.236.028.011c.128.079.256.152.387.225l.034.017c.129.073.256.141.387.214l.043.023.385.197.051.028.381.186c.021.009.042.017.063.028.125.056.25.115.377.171l.073.034c.124.055.248.107.373.158l.083.034c.122.051.245.1.368.146l.093.034c.12.049.241.095.364.135l.105.039c.118.039.237.082.356.121l.117.039c.117.039.233.079.35.113l.129.039.344.101.141.039c.112.032.222.062.336.09l.156.038c.108.026.216.052.324.077l.165.039.319.068.176.034c.102.021.205.039.307.056l.199.034c.097.017.194.034.296.047.074.011.142.023.216.031.091.011.182.026.279.038l.239.025c.085.011.176.019.262.028.08.006.165.013.25.023.085.006.171.014.256.02.091.007.188.011.279.017l.233.017c.102.006.211.011.319.014.063.004.131.006.194.006.171.006.347.006.518.006.171 0 .347 0 .524-.006l.131-.006c.125 0 .256-.006.381-.011l.028-.027z"/><path fill="#618931" d="M27.498 33.812c.453 0 2.536-1.124 3.326-1.709 1.579-1.165 3.27-2.781 4.763-4.543 1.685-1.993 3.108-4.143 4.099-6.226 1.173-2.454 1.765-4.796 1.765-6.963 0-2.815-.564-5.539-1.679-8.106C39.1 4.717 37.41 2.15 36.391.822L34.803.079c3.751 3.631 6.08 8.691 6.08 14.292 0 8.917-10.611 18.936-14.049 19.06-.359 0-.655-.079-.677-.079 0 0 .495.467 1.338.467l.003-.007zM18.694.238C11.627 3.36 6.703 10.37 6.703 18.517c0 6.451 3.089 12.189 7.883 15.849l.002.006c.125.096.252.191.38.287l.006.006c.125.096.25.186.381.276l.011.006c.125.09.256.174.381.259.006.006.011.006.011.011.125.084.256.169.387.248l.017.011c.125.084.256.158.387.236l.028.017c.125.079.256.152.387.225l.036.016c.125.073.256.146.387.214l.04.023.381.197.051.028.381.186c.023.011.04.017.063.028.125.056.25.118.376.175l.074.034c.125.056.245.107.37.158l.08.034c.12.051.245.101.364.146l.091.034c.12.051.239.096.364.135l.102.039c.12.045.233.084.353.124l.114.039c.12.039.233.079.353.113l.127.039c.114.034.228.068.347.101l.138.039c.114.034.222.062.336.09l.157.039c.108.028.216.056.324.079l.171.039.313.068.182.034c.102.019.205.039.307.056l.199.028c.097.017.197.034.296.05.074.011.148.023.22.031.096.017.188.028.279.039l.239.028c.091.011.176.023.268.032.085.011.171.017.25.023.085.006.171.017.262.023l.279.017.233.017c.108.006.216.01.323.011l.194.01c.173.004.347.006.518.006.176 0 .35-.002.524-.006l.134-.006c.131-.006.256-.008.387-.014l.183-.011c.11-.01.222-.017.332-.023l.176-.017c.108-.009.222-.017.336-.028.063-.006.125-.014.188-.021.108-.011.214-.023.319-.036.06-.006.12-.017.176-.023.108-.017.221-.028.33-.045l.125-.023c.125-.02.25-.039.375-.062.04-.006.08-.015.117-.023.127-.023.254-.048.381-.073.038-.008.074-.017.108-.023l.387-.084.102-.025c.127-.028.256-.062.381-.096l.091-.023c.131-.034.262-.068.393-.107l.063-.017c.142-.039.279-.079.416-.121l.057-.017c.137-.045.279-.09.416-.135.02-.006.04-.011.06-.023.137-.045.273-.09.41-.141l.034-.011c.142-.051.285-.104.424-.158l.028-.011c.142-.056.287-.113.429-.174l.25-.107-.017-.608-.014.006-.006.002c-.137.062-.282.124-.425.183l-.017.006c-.131.056-.268.113-.416.169-.011.006-.017.006-.023.011l-.011.003c-.125.051-.26.101-.41.158h-.002l-.017.006-.011.006-.398.135-.031.011-.023.007c-.12.039-.247.079-.404.129l-.037.011c-.006.001-.015.006-.023.006l-.398.118-.043.011-.023.006c-.131.035-.262.07-.381.101l-.046.011c-.011.006-.028.008-.04.011-.131.034-.268.068-.376.09l-.051.011c-.017.006-.028.008-.046.011-.125.028-.25.056-.37.081l-.057.011-.05.011c-.115.023-.235.045-.37.069l-.057.011-.054.011c-.12.019-.245.039-.364.056l-.059.01-.063.011-.262.034-.057.006-.071.007-.102.015-.233.024-.08.008-.08.006-.102.011c-.091.008-.184.017-.285.024l-.042.005-.074.006-.097.006-.256.017-.068.004h-.085l-.097.006c-.116.006-.233.011-.359.014h-.013l-.068.002h-.057c-.171.002-.342.006-.509.006-.165 0-.336-.003-.501-.006l-.108-.006-.085-.003-.063-.003-.252-.009-.137-.01-.091-.006-.085-.006-.188-.011-.171-.017-.08-.006-.076-.006-.165-.015-.176-.017-.08-.007-.074-.01-.154-.017-.199-.026-.074-.011-.076-.011-.135-.017c-.08-.011-.158-.023-.239-.039l-.05-.006-.074-.014-.12-.017c-.085-.014-.171-.03-.256-.047l-.046-.006-.068-.011-.106-.023c-.089-.017-.176-.034-.268-.056l-.04-.009-.067-.017-.097-.017c-.106-.023-.214-.045-.317-.073l-.074-.017-.081-.017-.324-.087-.057-.017-.08-.023c-.116-.033-.233-.068-.334-.096l-.057-.017-.063-.021c-.114-.034-.228-.073-.338-.107l-.051-.017-.063-.021c-.122-.039-.245-.082-.347-.118l-.047-.017-.057-.019c-.102-.037-.211-.079-.353-.132l-.04-.017-.051-.017c-.105-.039-.219-.084-.359-.141l-.04-.017-.04-.017c-.105-.045-.216-.09-.361-.156l-.034-.011-.034-.017-.364-.169-.036-.017-.023-.011c-.108-.056-.233-.113-.37-.18l-.023-.011-.023-.017c-.114-.056-.233-.118-.37-.191l-.034-.017-.011-.006c-.12-.062-.245-.129-.376-.203l-.017-.008-.017-.011c-.12-.068-.245-.138-.376-.214l-.02-.011-.006-.006c-.122-.073-.245-.146-.376-.229l-.017-.011-.006-.003c-.125-.079-.253-.159-.376-.239l-.002-.002-.006-.002-.006-.006c-.125-.081-.25-.166-.376-.253l-.011-.006c-.125-.084-.25-.175-.372-.265h-.006c-.124-.09-.245-.183-.368-.276l-.011-.011c-2.34-1.796-4.264-4.104-5.579-6.693-.672-1.323-1.191-2.724-1.54-4.166-.361-1.48-.544-3.012-.544-4.551 0-3.828 1.127-7.532 3.253-10.712 1.509-2.257 4.294-5.08 7.15-6.477l1.02-1.092.028.003z"/><path fill="#659d32" d="M11.288 17.046C8.913 19.087 4.41 19.761-.1 20.432c3.939.691 8.727-.152 11.596 2.469l-.211-5.854.003-.001zm-1.195-4.571l2.578-5.242c-2.888.649-6.864-.927-10.842-2.51 2.876 2.503 7.162 4.069 8.264 7.752zM6.376 31.701c3.754-1.337 7.423-4.409 11.285-3.564l-3.302-4.928c-.955 2.916-4.466 5.702-7.984 8.489l.001.003zm11.359 10.348c2.175-2.759 3.486-6.88 6.746-7.927l-4.723-2.499c.635 2.782-.692 6.602-2.023 10.426zm23.051-20.346l-3.275 4.945c3.162-.397 7.275 1.488 11.391 3.379-2.845-2.706-7.293-4.607-8.116-8.324zm-5.851 8.84l-4.528 2.865c2.678.856 5.234 3.957 7.788 7.063-1.224-3.304-4.04-6.543-3.26-9.928zm7.548-17.264l-.179 5.855c2.51-1.891 7.047-2.287 11.596-2.679-3.883-.932-8.721-.386-11.408-3.176h-.009zm7.641-9.424c-3.116.675-6.566 3.156-9.263 1.558l1.339 5.709c1.383-2.835 4.65-5.052 7.924-7.267z"/><path fill="#618931" d="M-.099 20.432c3.939.69 8.729-.152 11.599 2.468l-.025-.7c-2.089-1.589-5.173-1.735-7.763-1.871l-2.439-.104-1.372.207zM1.829 4.723c2.876 2.504 7.162 4.07 8.264 7.753l.36-.732C9.472 9.31 7.02 7.832 4.998 6.478L3.46 5.364l-1.631-.641zm13.985 22.818c-1.813 0-4.042 1.119-6.197 2.2l-2.106 1.055-1.133.906c3.307-1.179 6.575-3.71 9.933-3.71l-.507-.45.01-.001zm1.921 14.508c2.175-2.759 3.315-6.598 6.575-7.646l-.478-.253c-2.291.505-4.383 4.336-5.518 6.22l-.579 1.679zm19.675-3.355c-1.583-1.795-3.901-4.094-5.846-4.89l-.531.336c2.678.856 4.607 3.225 7.162 6.331l-.785-1.777zM48.937 4.182C46.78 5.45 43.444 7.893 42.59 9.854l.179.761c1.384-2.834 4.082-4.544 7.355-6.761m-7.365 15.28c2.507-1.891 6.591-2.287 11.136-2.679l-1.831-.34c-1.087.006-4.161.436-4.837.565-1.816.346-3.25.843-4.446 1.711l-.022.743zm4.845 9.778c-2.397-1.211-5.784-2.54-8.573-2.333l-.381.576c.287-.034.583-.051.886-.051 3.025 0 5.624 1.21 9.365 2.927l-1.298-1.115.001-.004z"/></svg>
