<?xml version="1.0" encoding="utf-8"?>
<!-- Generator: Adobe Illustrator 15.0.2, SVG Export Plug-In . SVG Version: 6.00 Build 0)  -->
<!DOCTYPE svg PUBLIC "-//W3C//DTD SVG 1.1//EN" "http://www.w3.org/Graphics/SVG/1.1/DTD/svg11.dtd">
<svg version="1.1" id="Layer_1" xmlns="http://www.w3.org/2000/svg" xmlns:xlink="http://www.w3.org/1999/xlink" x="0px" y="0px"
	 width="293px" height="285px" viewBox="0 0 293 285" enable-background="new 0 0 293 285" xml:space="preserve">
<g>
	<path fill="#00B171" d="M83.071,27.023c5.29-1.91,11.443,0.624,16.973,0.633c9.55-0.09,17.89,4.784,23.49,12.534
		c5.4,7.36,9.165,15.465,9.594,24.695c0.94,5.97,1.456,10.98,2.036,16.96c7.42,1.46,15.714,3.165,23.245,3.145
		c-1.82-6.15-5.789-13.23-5.249-19.86c0.61-6.03,2.195-11.446,5.936-16.346c1.359-1.78,1.226-1.877,3.415-2.037
		c1.08,2.32,4.383,2.99,3.875,5.72c-1.01,5.26-4.059,10.089-4.539,15.459c-0.34,4.19,1.324,7.972,3.265,11.872
		c0.64,1.92,0.911,0.762,2.392,0.652c9.4-2.1,15.024-10.969,24.635-12.559c11.39-2.29,21.65,5.146,32.781,5.806
		c2.699-0.14,4.211-0.497,6.602-1.667c-2.973,0.27-5.127,0.564-8.066-0.266c-8.729-2.06-15.477-9.22-23.996-11.831
		c-3.689-1.24-8.888,0.176-12.696,0.126c3.694-5.237,9.483-9.562,15.1-12.514c5.6-2.945,12.092-4.025,18.158-5.289
		c7.631-1.63,15.354,0.112,21.527,4.646c6.173,4.532,10.557,11.351,11.361,19.08c0.59,6.33-0.229,13.729-3.77,18.899
		c-4.579,4.87-11.003,9.815-17.992,10.665c-6.267,1.096-13.143,1.323-19.074-0.565c-5.919-1.884-9.995-8.162-15.074-11.618
		c-4.311-2.63-8.191-5.237-11.371-9.037c-4.83,2.39-9.388,5.243-13.718,8.393c-2.05,1.68-3.286,2.494-5.786,2.984
		c2.221,5.97,3.287,11.381,5.608,17.311c-2.25,0.01-1.907-1.329-4.157-1.359c-1.41-3.55-4.654-5.3-6.974-8.39
		c-2.683-2.97-5.693-4.374-9.746-4.454c-8.569-0.5-17.561-1.036-25.94-3.026c-3.89-1.91-8.493-4.172-12.073-6.592
		c-6.14-6.89-7.399-17.405-14.249-23.775c-2.78-2.72-5.487-4.633-9.248-5.403c2.83,2.19,4.881,4.356,6.722,7.546
		c5.56,8.6,6.215,19.104,11.195,27.954c2.15,3.86,5.195,4.785,8.646,7.325c-6.753,1.472-12.394,2.832-19.228,1.903
		c-6.818-0.926-13.432-3.233-19.765-5.77c-6.82-2.9-13.165-6.955-16.935-13.646c-4.82-7.95-6.722-18.279-3.332-26.639
		C61.159,38.181,72.321,30.203,83.071,27.023z"/>
</g>
<g>
	<path fill="#FFC92F" d="M166.282,100.918c2.25,0.03,4.572-2.479,6.822-2.489c8.439,0.45,16.549,3.687,24.393,5.619
		c8.265,2.037,16.395,4.175,23.568,7.783c7.614,3.83,13.574,9.729,19.447,15.241c6.103,5.727,10.137,12.436,13.776,19.876
		c3.514,7.181,7.141,14.347,7.817,23.028c0.598,7.657,1.21,16.081-0.789,24.838c-1.694,7.417-4.486,15.4-8.284,23.563
		c-3.231,6.944-9.459,12.876-14.361,20.334c-4.459,6.782-9.038,13.807-16.475,18.234c-6.821,4.062-14.73,7.631-23.173,9.653
		c-7.836,1.878-16.435,2.314-24.963,2.389c-8.201,0.07-16.378-2.153-24.604-3.79c-8.153-1.622-15.903-4.176-23.493-7.514
		c-7.653-3.366-15.156-6.79-21.637-11.94c-6.482-5.151-11.406-11.659-16.115-18.635c-4.502-6.67-9.917-13.27-12.259-21.643
		c-2.104-7.521-4.072-15.986-4.031-24.907c0.036-7.715,1.417-16.155,3.322-24.935c0.95-8.43,4.944-17.104,10.204-23.634
		c4.522-5.903,11.817-9.245,18-13.235c6.266-4.044,12.72-7.868,19.49-10.327c7.436-2.7,14.65-5.59,21.165-6.86
		C155.372,99.372,164.304,100.899,166.282,100.918z"/>
</g>
<g>
	<path fill="#EE2C3A" d="M171.753,133.942c1.484,0.369,6.165,3.884,11.263,8.947c2.961,2.941,5.543,7.12,8.859,10.858
		c3.046,3.435,6.961,6.4,9.794,10.043c3.04,3.908,4.771,8.557,6.979,12.173c3.119,5.106,4.655,9.407,4.655,12.604
		c0,5.208,0.729,10.042-0.644,14.111c-1.609,4.769-4.304,8.909-7.206,12.303c-3.164,3.702-6.887,7.006-10.792,9.328
		c-4.295,2.553-9.347,3.165-13.482,4.389c-5.871,1.735-10.881,3.61-13.736,3.53c-3.007,0.069-7.344-2.481-12.005-5.508
		c-3.326-2.159-6.847-4.951-10.214-8.102c-3.148-2.945-5.668-6.618-8.29-10.018c-2.812-3.646-4.974-7.362-6.53-11.059
		c-1.908-4.531-2.508-8.454-1.404-12.238c0.86-3.866,1.401-8.688,3.998-13.036c2.21-3.7,5.795-6.889,8.74-10.549
		c2.859-3.555,5.456-7.445,8.561-10.63c3.404-3.491,6.962-6.55,10.105-9.184C165.124,137.952,169.261,134.746,171.753,133.942z"/>
</g>
</svg>
