<svg xmlns="http://www.w3.org/2000/svg" version="1.1" x="0" y="0" width="1024" height="1024" viewBox="0" enable-background="new 0 0 1024 1024" xml:space="preserve"><path fill="#423228" d="M301.5 308c-12.7 35.9-12.8 58.1-12.8 89.1 0 141.7 166.5 304.3 222.6 302.9S734 538.8 734 397.1c0-31.7 3-44.5-13.4-91.2S585.3 192.2 492.1 199.4C412.1 205.5 314.2 272.1 301.5 308z"/><path fill="#659D32" d="M530.9 822.1c1.1-0.1 2.2-0.1 3.2-0.2 1.9-0.1 3.9-0.2 5.8-0.4 1-0.1 2.1-0.2 3.1-0.3 2-0.2 4-0.3 5.9-0.5 1.1-0.1 2.2-0.3 3.3-0.4 1.9-0.2 3.7-0.4 5.6-0.6 1-0.1 2.1-0.3 3.1-0.4 1.9-0.3 3.9-0.5 5.8-0.8 0.7-0.1 1.5-0.2 2.2-0.4 2.2-0.3 4.4-0.7 6.6-1.1 0.7-0.1 1.4-0.3 2.1-0.4 2.2-0.4 4.5-0.8 6.7-1.3 0.6-0.1 1.3-0.3 1.9-0.4 2.3-0.5 4.5-1 6.8-1.5 0.6-0.1 1.2-0.3 1.8-0.4 2.3-0.5 4.5-1.1 6.7-1.6 0.5-0.1 1.1-0.3 1.6-0.4 2.3-0.6 4.6-1.2 6.9-1.9 0.4-0.1 0.8-0.2 1.1-0.3 2.4-0.7 4.9-1.4 7.3-2.2 0.3-0.1 0.7-0.2 1-0.3 2.4-0.8 4.9-1.6 7.3-2.4 0.4-0.1 0.7-0.3 1.1-0.4 2.4-0.8 4.8-1.7 7.2-2.5 0.2-0.1 0.4-0.2 0.7-0.2 2.5-0.9 5-1.9 7.5-2.8 0.2-0.1 0.3-0.1 0.5-0.2 2.5-1 5-2 7.5-3.1 0.1 0 0.2-0.1 0.3-0.1 2.6-1.1 5.1-2.2 7.7-3.4 0.1-0.1 0.2-0.1 0.3-0.2C782.5 735 868.1 611 868.1 467.1c0-147.3-89.6-273.7-217.3-327.6 65.9 64.5 106.8 154.4 106.8 253.9 0 158.4-186.4 336.4-246.8 338.5S263.9 551.8 263.9 393.4c0-98 39.7-186.7 103.8-251 -124.1 55.5-210.6 180-210.6 324.7 0 114.6 54.3 216.5 138.5 281.6 0 0 0 0 0 0 2.2 1.7 4.4 3.4 6.7 5 0 0 0.1 0 0.1 0.1 2.2 1.6 4.5 3.2 6.7 4.8 0.1 0 0.1 0.1 0.2 0.1 2.2 1.6 4.5 3.1 6.8 4.6 0.1 0.1 0.2 0.1 0.3 0.2 2.2 1.5 4.5 3 6.8 4.4 0.1 0.1 0.3 0.2 0.4 0.2 2.3 1.4 4.5 2.8 6.8 4.2 0.2 0.1 0.3 0.2 0.5 0.3 2.3 1.3 4.5 2.7 6.8 4 0.2 0.1 0.4 0.2 0.6 0.3 2.2 1.3 4.5 2.5 6.8 3.7 0.2 0.1 0.5 0.3 0.7 0.4 2.2 1.2 4.5 2.4 6.8 3.5 0.3 0.2 0.6 0.3 0.9 0.4 2.2 1.1 4.5 2.2 6.7 3.3 0.4 0.2 0.7 0.3 1.1 0.5 2.2 1 4.4 2.1 6.6 3 0.4 0.2 0.9 0.4 1.3 0.6 2.2 1 4.3 1.9 6.5 2.8 0.5 0.2 1 0.4 1.4 0.6 2.2 0.9 4.3 1.8 6.5 2.6 0.5 0.2 1.1 0.4 1.6 0.6 2.1 0.8 4.2 1.6 6.4 2.4 0.6 0.2 1.2 0.4 1.9 0.7 2.1 0.7 4.2 1.5 6.2 2.2 0.7 0.2 1.4 0.4 2.1 0.7 2 0.7 4.1 1.3 6.1 2 0.7 0.2 1.5 0.4 2.3 0.7 2 0.6 4 1.2 6 1.8 0.8 0.2 1.7 0.4 2.5 0.7 2 0.5 3.9 1.1 5.9 1.6 0.9 0.2 1.8 0.4 2.8 0.7 1.9 0.5 3.8 0.9 5.7 1.4 1 0.2 2 0.4 3 0.6 1.9 0.4 3.7 0.8 5.6 1.2 1.1 0.2 2.1 0.4 3.2 0.6 1.8 0.4 3.6 0.7 5.5 1 1.2 0.2 2.3 0.4 3.5 0.6 1.7 0.3 3.5 0.6 5.2 0.9 1.3 0.2 2.6 0.4 3.8 0.5 1.6 0.2 3.3 0.5 4.9 0.7 1.4 0.2 2.8 0.3 4.2 0.5 1.6 0.2 3.1 0.4 4.7 0.5 1.5 0.1 2.9 0.3 4.4 0.4 1.5 0.1 3 0.3 4.5 0.4 1.6 0.1 3.3 0.2 4.9 0.3 1.4 0.1 2.7 0.2 4.1 0.3 1.9 0.1 3.8 0.1 5.6 0.2 1.1 0 2.3 0.1 3.4 0.1 3 0.1 6.1 0.1 9.1 0.1 3.1 0 6.1 0 9.2-0.1 0.8 0 1.6-0.1 2.4-0.1C526.4 822.3 528.7 822.2 530.9 822.1z"/><path fill="#659D32" d="M237.6 440.9c-41.7 36.3-120.8 48.2-200.1 60.1 69.2 12.3 153.4-2.7 203.8 43.9L237.6 440.9z"/><path fill="#659D32" d="M216.6 359.7l45.3-93.1c-50.7 11.5-120.6-16.5-190.5-44.6C122 266.5 197.3 294.3 216.6 359.7z"/><path fill="#659D32" d="M151.3 701.3c66-23.8 130.4-78.3 198.3-63.3l-58-87.6C274.8 602.2 213.1 651.8 151.3 701.3z"/><path fill="#659D32" d="M350.9 885.1c38.2-49 61.3-122.2 118.5-140.8l-83-44.4C397.6 749.3 374.3 817.2 350.9 885.1z"/><path fill="#659D32" d="M755.8 523.7l-57.5 87.8c55.6-7 127.8 26.4 200.1 60C848.4 623.5 770.3 589.7 755.8 523.7z"/><path fill="#659D32" d="M653.1 680.7l-79.6 50.9c47 15.2 91.9 70.3 136.8 125.5C688.8 798.4 639.4 740.8 653.1 680.7z"/><path fill="#659D32" d="M785.7 374l-3.2 104c44-33.6 123.8-40.6 203.6-47.6C917.9 413.9 832.9 423.6 785.7 374z"/><path fill="#659D32" d="M919.9 206.6c-54.7 12-115.4 56.1-162.7 27.7l23.5 101.4C805 285.3 862.4 245.9 919.9 206.6z"/></svg>