<?xml version="1.0" standalone="no"?>
<!DOCTYPE svg PUBLIC "-//W3C//DTD SVG 1.1//EN" "http://www.w3.org/Graphics/SVG/1.1/DTD/svg11.dtd" >
<svg xmlns="http://www.w3.org/2000/svg">
<metadata>
This is a custom SVG webfont generated by Font Squirrel.
Copyright   : Generated in 2009 by FontLab Studio Copyright info pending
</metadata>
<defs>
<font id="TitilliumText14L999wt" horiz-adv-x="1128" >
<font-face units-per-em="2048" ascent="1536" descent="-512" />
<missing-glyph horiz-adv-x="499" />
<glyph unicode=" "  horiz-adv-x="499" />
<glyph unicode="&#x09;" horiz-adv-x="499" />
<glyph unicode="&#xa0;" horiz-adv-x="499" />
<glyph unicode="!" d="M422 1491h315l-10 -938h-295zM426 0v354h307v-354h-307z" />
<glyph unicode="&#x22;" horiz-adv-x="755" d="M70 1470h274l-10 -532h-260zM428 1470h274l-10 -532h-260z" />
<glyph unicode="#" d="M2 352v238h205v225h-205v240h205v350h248v-350h221v350h246v-350h204v-240h-204v-225h204v-238h-204v-352h-246v352h-221v-352h-248v352h-205zM455 590h221v225h-221v-225z" />
<glyph unicode="$" d="M129 1075q0 197 118 276t345 79h43l35 253h73l-34 -258l301 -30l-6 -72q-168 18 -304 29l-75 -590q121 -20 186.5 -41t127.5 -60.5t87 -106.5t25 -171q0 -207 -115 -302t-340 -95q-47 0 -74 2l-30 -244q-74 6 -74 14l28 234l-305 26l9 76q162 -23 307 -33l82 635 q-109 18 -173.5 40t-125 64t-86 108.5t-25.5 166.5zM213 1079.5q0 -153.5 73.5 -212t262.5 -91.5l78 580h-35q-190 0 -284.5 -61.5t-94.5 -215zM532 57h62q373 0 373 324q0 68 -14.5 116t-38 77.5t-72.5 51t-96.5 33t-131.5 25.5z" />
<glyph unicode="%" d="M2 1184.5q0 144.5 66.5 226.5t199.5 82q266 0 267 -322q0 -137 -66 -218t-200 -81t-200.5 84t-66.5 228.5zM209 12l524 1522l182 -64l-524 -1521zM211 1185q0 -79 11 -110t46 -31t46.5 31t11.5 110t-11.5 108.5t-46.5 29.5t-46 -29.5t-11 -108.5zM594 315.5 q0 145.5 66.5 227.5t200.5 82t199.5 -82t65.5 -227.5t-65.5 -228.5t-199.5 -83t-200.5 83t-66.5 228.5zM803 314.5q0 -78.5 12 -109.5t46 -31t45.5 31t11.5 109.5t-11.5 109.5t-45.5 31t-46 -31t-12 -109.5z" />
<glyph unicode="&#x26;" horiz-adv-x="1490" d="M68 422q0 268 297 436q-63 88 -86 148.5t-23 164.5q0 164 116.5 257.5t315.5 93.5q211 0 322.5 -95.5t111.5 -277.5q0 -139 -62.5 -233.5t-217.5 -208.5l166 -170q43 180 51 247l276 -6q-33 -223 -106 -418l239 -221l-172 -192l-219 190q-129 -100 -234.5 -143 t-264.5 -43q-233 0 -371.5 124t-138.5 347zM362 424q0 -92 63.5 -148.5t160.5 -56.5q84 0 143 20.5t133 73.5l-325 346q-74 -43 -124.5 -107.5t-50.5 -127.5zM543 1128q0 -111 94 -210l31 -31q90 68 128 115t38 114q0 137 -145.5 137t-145.5 -125z" />
<glyph unicode="'" horiz-adv-x="212" d="M-43 1470h274l-10 -532h-260z" />
<glyph unicode="(" horiz-adv-x="552" d="M10 641q0 190 52.5 429t103.5 382l51 145h311q-25 -61 -57.5 -164.5t-88.5 -358.5t-56 -433q0 -356 186 -862l16 -45h-311q-23 53 -57.5 144t-92 332t-57.5 431z" />
<glyph unicode=")" horiz-adv-x="552" d="M-8 -256q23 61 56.5 164.5t90 358.5t56.5 433q0 356 -187 863l-16 45h311q23 -53 56.5 -144.5t92 -332t58.5 -430t-52 -428t-104 -384.5l-51 -145h-311z" />
<glyph unicode="*" d="M223 975l223 166l-217 155l99 136l211 -148l88 250l159 -53l-81 -260h262v-158h-262l81 -256l-155 -47l-88 258l-219 -168z" />
<glyph unicode="+" d="M35 489v261h401v401h260v-401h408v-261h-408v-403h-260v403h-401z" />
<glyph unicode="," horiz-adv-x="360" d="M-12 -262l110 553h308l-132 -553h-286z" />
<glyph unicode="-" horiz-adv-x="935" d="M150 459v280h638v-280h-638z" />
<glyph unicode="." horiz-adv-x="526" d="M96 0v354h307v-354h-307z" />
<glyph unicode="/" d="M119 43l604 1491l272 -94l-604 -1491z" />
<glyph unicode="0" d="M14 694q0 387 138.5 562.5t410 175.5t409.5 -175.5t138 -562.5q0 -385 -137 -552t-410.5 -167t-411 167t-137.5 552zM330 694q0 -254 52 -346t182 -92t180.5 91t50.5 347q0 258 -51.5 357.5t-178.5 99.5q-131 0 -183 -100.5t-52 -356.5z" />
<glyph unicode="1" d="M59 1100l461 305h273v-1405h-295v1063l-301 -199z" />
<glyph unicode="2" d="M109 0v268l292 289l126 130q38 40 86.5 99.5t64.5 105.5t16 95q0 80 -53 116t-176 36q-63 0 -147.5 -7.5t-135.5 -15.5l-47 -8l-18 268q223 55 422 56q238 0 348 -101.5t110 -302.5q0 -158 -63.5 -271.5t-233.5 -279.5l-200 -196h520v-281h-911z" />
<glyph unicode="3" d="M98 25l27 264q240 -29 401 -29q219 0 219 158q0 150 -204 149h-283v267h283q68 0 124 54t56 109q0 150 -211 150q-76 0 -167 -7t-146 -16l-56 -6l-26 258q246 55 415 56q270 0 381 -93.5t111 -294.5q0 -109 -40 -178t-124 -125q100 -53 145.5 -119.5t45.5 -197.5 q0 -227 -115 -338t-365 -111q-94 0 -210.5 12.5t-188.5 24.5z" />
<glyph unicode="4" d="M47 205v237l348 963h326l-342 -920h270v361h295v-361h129v-280h-129v-225h-295v225h-602z" />
<glyph unicode="5" d="M74 45l32 262q279 -51 457 -51q84 0 136.5 50t52.5 134q0 90 -51.5 136.5t-145.5 46.5l-223 -33l-226 49l48 768h858v-281h-594l-35 -268q137 39 205 39q233 0 350 -106.5t117 -331.5q0 -231 -126 -357.5t-356 -126.5q-218 0 -499 70z" />
<glyph unicode="6" d="M47 696q0 403 140.5 569.5t422.5 166.5l422 -48l-24 -268q-217 33 -398 33q-139 0 -199.5 -75t-60.5 -226l37 12q41 12 102.5 26.5t106.5 14.5q242 0 362.5 -110.5t120.5 -346.5q0 -231 -136 -350t-378 -119q-274 0 -396 180.5t-122 540.5zM348 594q0 -160 46 -251 t171 -91q213 0 213 192q0 188 -207 189q-51 -2 -106 -12.5t-86 -18.5z" />
<glyph unicode="7" d="M104 1124v283h900v-334l-508 -1112l-273 78l477 1034v51h-596z" />
<glyph unicode="8" d="M39 358q0 135 41 211t135 156q-90 72 -122 141.5t-32 182.5q0 180 138.5 281.5t371 101.5t374.5 -102.5t142 -282.5q0 -125 -29.5 -186.5t-121.5 -135.5q92 -80 133 -150.5t41 -193.5q0 -209 -149.5 -307.5t-389.5 -98.5q-532 0 -532 383zM354 426q0 -170 217 -170 q109 0 166.5 44t57.5 126q0 106 -125 156h-189q-127 -50 -127 -156zM377 1001q0 -90 104 -161h189q104 72 104 161q0 150 -198.5 150t-198.5 -150z" />
<glyph unicode="9" d="M33 961q0 227 139 349t375 122q518 0 518 -742q0 -207 -36 -347t-111.5 -220t-176 -114t-241.5 -34l-422 45l26 269q217 -31 396 -31q141 0 201.5 71.5t60.5 209.5l-37 -7q-41 -8 -102.5 -18t-106.5 -10q-233 0 -358 116t-125 341zM334 961q0 -186 207 -187l223 27 q0 354 -217 354q-100 0 -156.5 -49t-56.5 -145z" />
<glyph unicode=":" horiz-adv-x="489" d="M74 0v354h307v-354h-307zM74 616v353h307v-353h-307z" />
<glyph unicode=";" horiz-adv-x="512" d="M8 -242h266l172 576h-305zM119 616v353h307v-353h-307z" />
<glyph unicode="&#x3c;" d="M135 504v299l737 387v-297l-456 -236l456 -239v-299z" />
<glyph unicode="=" d="M45 248v260h1012v-260h-1012zM45 709v260h1012v-260h-1012z" />
<glyph unicode="&#x3e;" d="M135 119v299l457 239l-457 236v297l737 -387v-299z" />
<glyph unicode="?" horiz-adv-x="821" d="M10 1460q250 61 365 62q256 0 367.5 -95.5t111.5 -326.5q0 -109 -38 -194t-95 -134t-112.5 -88t-93.5 -77t-38 -79v-82h-307v89q0 82 39 143t92 101l108 78q54 38 92 89t38 115q0 88 -31 123t-146 35q-49 0 -127.5 -9.5t-134.5 -21.5l-55 -8zM170 0v354h307v-354h-307z " />
<glyph unicode="@" horiz-adv-x="2097" d="M86 555q0 494 266 745.5t721 251.5q467 0 703.5 -231t236.5 -672v-35q0 -340 -102.5 -487t-308.5 -147q-184 0 -277 90q-184 -88 -321 -88q-201 0 -300.5 123.5t-99.5 410.5q0 137 18.5 235.5t62.5 176.5t126 116.5t201 38.5l198 -47v29h285v-426q0 -170 10.5 -253 t32 -106.5t64.5 -23.5q68 0 95 72.5t27 285.5v37q0 338 -153.5 480.5t-497.5 142.5t-522 -183.5t-178 -535.5q0 -389 158.5 -555t541.5 -166l305 19l11 -277q-213 -20 -316 -20q-244 0 -421 48t-308 162.5t-194.5 310t-63.5 478.5zM895 516q0 -141 30.5 -197.5t100.5 -56.5 q86 0 199 33q-14 88 -15 217v281q-94 20 -135 20q-113 0 -146.5 -58.5t-33.5 -238.5z" />
<glyph unicode="A" horiz-adv-x="1288" d="M43 0l326 1470h557l319 -1470h-293l-65 248h-496l-55 -248h-293zM455 530h376l-139 670h-96z" />
<glyph unicode="B" horiz-adv-x="1288" d="M150 0v1470h563q211 0 331.5 -91t120.5 -281q0 -141 -35.5 -216t-123.5 -130q100 -45 143 -121t43 -215q0 -211 -123 -313.5t-346 -102.5h-573zM438 270h269q94 0 139 40t45 128q0 164 -184 164h-269v-332zM438 868h262q164 0 164 176q0 156 -166 156h-260v-332z" />
<glyph unicode="C" horiz-adv-x="1136" d="M86 735q0 418 124 589t429 171q82 0 186.5 -14.5t171.5 -32.5l66 -14l-8 -258q-258 31 -373 30q-117 0 -178.5 -38t-89 -139t-27.5 -294q0 -279 58.5 -375t244.5 -96q47 0 138.5 8.5t160.5 16.5l66 8l6 -264q-254 -57 -422 -58q-322 0 -437.5 177t-115.5 583z" />
<glyph unicode="D" horiz-adv-x="1333" d="M150 0v1470h483q186 0 308 -40.5t188.5 -133t92 -217.5t25.5 -317q0 -201 -22.5 -331t-88 -233.5t-189.5 -150.5t-314 -47h-483zM438 279h195q82 0 141.5 22.5t92 58t51 102t23.5 132t5 168.5q0 84 -3 137t-14 106.5t-33 84t-56.5 55t-86 35t-120.5 10.5h-195v-911z" />
<glyph unicode="E" horiz-adv-x="1177" d="M150 0v1470h931v-282h-643v-328h516v-274h-516v-305h643v-281h-931z" />
<glyph unicode="F" horiz-adv-x="1144" d="M150 0v1470h931v-282h-643v-424h516v-279h-516v-485h-288z" />
<glyph unicode="G" horiz-adv-x="1265" d="M86 739q0 401 132 578.5t450 177.5q98 0 224 -14.5t204 -32.5l75 -14l-8 -254q-256 29 -450 28q-190 0 -258 -94t-68 -375q0 -283 62.5 -381t255.5 -98l178 8v250h-133v262h421v-757q-305 -47 -493 -48q-330 0 -461 186.5t-131 577.5z" />
<glyph unicode="H" horiz-adv-x="1423" d="M150 0v1470h292v-579h539v579h295v-1470h-295v606h-539v-606h-292z" />
<glyph unicode="I" horiz-adv-x="591" d="M150 0v1470h292v-1470h-292z" />
<glyph unicode="J" horiz-adv-x="667" d="M63 123q162 0 162 137v1210h293q0 -227 1 -612t1 -613.5t-103.5 -311.5t-353.5 -83v273z" />
<glyph unicode="K" horiz-adv-x="1261" d="M150 0v1470h292v-630l193 20l237 610h340l-315 -731l324 -739h-338l-244 578l-197 -23v-555h-292z" />
<glyph unicode="L" horiz-adv-x="1036" d="M150 0v1470h292v-1187h531v-283h-823z" />
<glyph unicode="M" horiz-adv-x="1804" d="M150 0v1470h468l287 -1056l287 1056h465v-1470h-293v1100h-33l-278 -1037h-295l-283 1037h-33v-1100h-292z" />
<glyph unicode="N" horiz-adv-x="1492" d="M150 0v1470h460l408 -1099h33v1099h292v-1470h-446l-422 1100h-33v-1100h-292z" />
<glyph unicode="O" horiz-adv-x="1370" d="M86 725q0 389 136 579.5t464 190.5t464 -190.5t136 -579.5q0 -387 -135 -568.5t-465 -181.5t-465 181.5t-135 568.5zM387 725q0 -250 63.5 -358.5t235.5 -108.5t234.5 108.5t62.5 358.5q0 252 -63.5 369.5t-233.5 117.5t-234.5 -117.5t-64.5 -369.5z" />
<glyph unicode="P" horiz-adv-x="1259" d="M150 0v1470h532q514 0 514 -514q0 -258 -130 -397t-384 -139h-240v-420h-292zM442 702h238q219 0 219 254q0 229 -219 230h-238v-484z" />
<glyph unicode="Q" horiz-adv-x="1370" d="M86 725q0 389 136 579.5t464 190.5t464 -190.5t136 -579.5q0 -489 -219 -651l172 -281l-268 -125l-191 312q-59 -4 -94 -5q-330 0 -465 181.5t-135 568.5zM387 725q0 -250 63.5 -358.5t235.5 -108.5t234.5 108.5t62.5 358.5q0 252 -63.5 369.5t-233.5 117.5 t-234.5 -117.5t-64.5 -369.5z" />
<glyph unicode="R" horiz-adv-x="1306" d="M150 0v1470h561q264 0 388 -115.5t124 -373.5q0 -285 -213 -418l207 -563h-322l-170 475h-23h-260v-475h-292zM442 754h273q207 0 207 223q0 213 -211 213h-269v-436z" />
<glyph unicode="S" d="M102 35l29 264q264 -37 416 -37q182 0 182 154q0 66 -40 99.5t-175 90.5q-248 104 -328 194.5t-80 274.5q0 205 131.5 312.5t350.5 107.5q72 0 173 -14.5t167 -28.5l65 -14l-24 -264q-258 35 -381 34q-186 0 -187 -129q0 -70 45.5 -105.5t217.5 -111.5 q207 -86 282.5 -173t75.5 -267q0 -221 -122 -334t-351 -113q-162 1 -447 60z" />
<glyph unicode="T" horiz-adv-x="1021" d="M-20 1186v284h1064v-284h-385v-1186h-292v1186h-387z" />
<glyph unicode="U" horiz-adv-x="1357" d="M127 489v981h295v-981q0 -121 66.5 -171t191.5 -50q258 0 258 221v981h293v-981q0 -266 -137.5 -386.5t-414 -120.5t-414.5 120.5t-138 386.5z" />
<glyph unicode="V" horiz-adv-x="1304" d="M43 1470h309l250 -1189h96l256 1189h310l-342 -1470h-543z" />
<glyph unicode="W" horiz-adv-x="2002" d="M51 1470h309l222 -1167h32l222 1167h333l222 -1167h32l222 1167h309l-328 -1470h-438l-187 1036l-186 -1036h-436z" />
<glyph unicode="X" horiz-adv-x="1236" d="M33 0l395 729l-395 741h325l263 -514l260 514h325l-391 -741l391 -729h-325l-260 504l-263 -504h-325z" />
<glyph unicode="Y" horiz-adv-x="1214" d="M20 1470h328l260 -514l260 514h326l-436 -843v-627h-293v629z" />
<glyph unicode="Z" horiz-adv-x="1212" d="M127 0v283l582 872v31h-582v284h958v-284l-581 -871v-32h581v-283h-958z" />
<glyph unicode="[" horiz-adv-x="638" d="M59 1595h539v-280h-244v-1297h244v-280h-537z" />
<glyph unicode="\" horiz-adv-x="1773" d="M395 1495h320l655 -1495h-317z" />
<glyph unicode="]" horiz-adv-x="638" d="M-147 18h245v1297h-245v280h538l-2 -1857h-536v280z" />
<glyph unicode="^" d="M35 936l385 737h297l389 -737h-299l-234 457l-241 -457h-297z" />
<glyph unicode="_" horiz-adv-x="1105" d="M57 33h912v-260h-912v260z" />
<glyph unicode="`" horiz-adv-x="1159" d="M188 1380l101 269l547 -197l-101 -260z" />
<glyph unicode="a" horiz-adv-x="1124" d="M86 324q0 170 90 242.5t281 84.5l229 17v53q0 41 -29.5 67.5t-76.5 26.5q-70 0 -173.5 -5t-173.5 -11l-67 -6l-8 249q283 45 438 45q188 0 281.5 -83.5t93.5 -280.5v-395q0 -61 13 -82t56 -29l-10 -242q-127 0 -184.5 15.5t-116.5 56.5q-180 -72 -326 -72 q-156 0 -236.5 92.5t-80.5 256.5zM373 332q0 -113 88 -113q37 0 93 7t93 18l39 8v197l-194 -9q-119 -6 -119 -108z" />
<glyph unicode="b" horiz-adv-x="1161" d="M143 4v1487h285v-451q137 47 229 47q225 0 327.5 -122.5t102.5 -421.5q0 -332 -118.5 -450t-411.5 -118q-43 0 -147.5 7.5l-186.5 13.5zM428 244q98 -12 129 -13q143 0 192.5 68t49.5 244q0 154 -46 217t-132 63l-193 -16v-563z" />
<glyph unicode="c" horiz-adv-x="927" d="M74 543q0 285 106.5 414.5t343.5 129.5q55 0 140.5 -11t142.5 -21l57 -11l-8 -245q-168 16 -250 16q-147 0 -194 -57.5t-47 -214.5q0 -174 48 -234.5t195 -60.5l248 16l8 -246q-227 -43 -346 -43q-238 0 -341 133.5t-103 434.5z" />
<glyph unicode="d" horiz-adv-x="1173" d="M74 543q0 285 110.5 414.5t331.5 129.5q33 0 90.5 -7t98.5 -13l40 -6v430h285v-1491h-285v43q-147 -66 -256 -66q-231 0 -323 136.5t-92 429.5zM365 543q0 -164 36.5 -231.5t137.5 -69.5q84 2 206 28v541q-117 20 -208 20q-172 1 -172 -288z" />
<glyph unicode="e" horiz-adv-x="1079" d="M74 518q0 569 471 569q465 0 465 -479l-21 -198h-627q2 -92 51.5 -133t164.5 -41l393 20l4 -221q-244 -59 -443 -60q-242 0 -350 127t-108 416zM360 629h369q0 113 -42 160t-142.5 47t-141.5 -49t-43 -158z" />
<glyph unicode="f" horiz-adv-x="729" d="M37 805v258h115v49q0 227 67.5 313t243.5 86q31 0 92 -6t104 -14l46 -6l-5 -232q-94 4 -161 4q-59 0 -81 -33.5t-22 -113.5v-47h258v-258h-258v-805h-284v805h-115z" />
<glyph unicode="g" horiz-adv-x="1144" d="M74 -195q0 139 151 256q-76 53 -75 160q0 25 21.5 67t41.5 74l18 29q-143 104 -143 318q0 195 122 285.5t325 90.5q43 0 96 -6t84 -14l35 -6l327 6v-227h-133q35 -63 35 -129q0 -213 -108.5 -294t-340.5 -81q-49 0 -88 8q-20 -55 -20 -82q0 -43 37 -56.5t170 -13.5 q268 0 366.5 -70.5t98.5 -250.5q0 -195 -141.5 -288t-364.5 -93q-256 0 -385 67.5t-129 249.5zM356 -164q0 -92 234 -92q215 0 215 106q0 57 -38 74t-163 19l-190 14q-58 -58 -58 -121zM373 709q0 -72 35.5 -104t121.5 -32q90 0 129 31t39 105q0 72 -38.5 103.5t-127.5 31.5 q-86 0 -122.5 -31.5t-36.5 -103.5z" />
<glyph unicode="h" horiz-adv-x="1193" d="M143 0v1491h285v-459q164 55 264 55q213 0 294 -128t81 -402v-557h-285v557q0 135 -29.5 199.5t-119.5 64.5l-205 -24v-797h-285z" />
<glyph unicode="i" horiz-adv-x="569" d="M143 0v1063h285v-1063h-285zM143 1202v291h285v-291h-285z" />
<glyph unicode="j" horiz-adv-x="575" d="M-72 -291q141 86 181.5 135.5t40.5 167.5v1051h284v-1053q0 -217 -75.5 -320.5t-303.5 -217.5zM150 1221v290h284v-290h-284z" />
<glyph unicode="k" horiz-adv-x="1101" d="M143 0v1491h285v-834l109 23l211 383h319l-274 -502l288 -561h-321l-217 401l-115 -22v-379h-285z" />
<glyph unicode="l" horiz-adv-x="569" d="M143 0v1491h285v-1491h-285z" />
<glyph unicode="m" horiz-adv-x="1802" d="M143 0v1063h283v-51q70 35 145 57q66 18 107 18q172 0 260 -86q233 86 362 86q211 0 293 -123.5t82 -408.5v-555h-284v438q0 246 -21 303q-29 80 -129 80l-197 -39q8 -147 9 -231v-551h-287v547q0 156 -27.5 215t-120.5 59q-33 0 -79.5 -8t-77.5 -16l-33 -11v-786h-285z " />
<glyph unicode="n" horiz-adv-x="1193" d="M143 0v1063h285v-47q164 72 264 71q213 0 294 -128t81 -404v-555h-285v555q0 137 -29.5 201.5t-119.5 64.5q-33 0 -84 -8t-84 -16l-37 -11v-786h-285z" />
<glyph unicode="o" d="M74 532.5q0 264.5 113.5 409.5t377.5 145t377 -145t113 -409.5t-113 -411t-377 -146.5t-377.5 146.5t-113.5 411zM365 532.5q0 -155.5 43 -228.5t156.5 -73t156.5 73t43 228.5t-43 227t-156.5 71.5t-156.5 -71.5t-43 -227z" />
<glyph unicode="p" horiz-adv-x="1161" d="M143 -446v1509h285v-49q137 74 242 73q217 0 317 -123.5t100 -422.5q0 -326 -112.5 -446t-370.5 -120l-176 17v-438h-285zM428 244q96 -12 156 -13q125 0 170 69t45 241q0 287 -185 286l-186 -41v-542z" />
<glyph unicode="q" horiz-adv-x="1140" d="M74 520q0 567 487 567q55 0 165 -6t189 -12l84 -6v-1512h-286v449q-55 -25 -152 -25q-487 0 -487 545zM360 520q0 -289 201 -289q31 0 70 10.5t59 18.5l23 8v559q-98 4 -152 4q-201 0 -201 -311z" />
<glyph unicode="r" horiz-adv-x="765" d="M143 0v1063h285v-100q127 94 297 124v-305q-84 -18 -158.5 -39.5t-105.5 -37.5l-33 -15v-690h-285z" />
<glyph unicode="s" horiz-adv-x="1056" d="M100 741q0 174 116 260t298 86q68 0 171 -13t171 -25l70 -15l-4 -237q-264 35 -387 34q-90 0 -120 -19t-30 -64q0 -37 39 -52.5t162 -36.5q213 -33 292.5 -105.5t79.5 -234.5q0 -344 -430 -344q-70 0 -174 12.5t-176 24.5l-67 17l8 239q272 -37 381 -37q98 0 136 19.5 t38 62.5q0 37 -33 53.5t-141 36.5q-221 37 -310.5 105.5t-89.5 232.5z" />
<glyph unicode="t" horiz-adv-x="745" d="M33 805v258h125v299h284v-299h263v-258h-263v-402q0 -66 3.5 -92t23.5 -44.5t63 -18.5l162 4l13 -246q-141 -31 -218 -31q-190 0 -260.5 86t-70.5 318v426h-125z" />
<glyph unicode="u" horiz-adv-x="1193" d="M127 508v555h287v-555q0 -164 24.5 -220.5t124.5 -56.5q31 0 82 10.5l88 18.5l33 8v795h287v-1063h-287v45q-166 -70 -264 -70q-223 0 -299 121t-76 412z" />
<glyph unicode="v" horiz-adv-x="1030" d="M16 1063h297l174 -827h58l180 827h289l-256 -1063h-486z" />
<glyph unicode="w" horiz-adv-x="1597" d="M25 1063h282l129 -805h51l162 786h299l162 -786h51l129 805h283l-199 -1063h-459l-118 651l-121 -651h-453z" />
<glyph unicode="x" horiz-adv-x="993" d="M20 0l291 530l-291 533h306l170 -328l174 328h303l-291 -533l291 -530h-303l-174 326l-170 -326h-306z" />
<glyph unicode="y" horiz-adv-x="1032" d="M16 1063h283l193 -784h49l194 784h281l-264 -1063l-109 -444h-281l109 444h-192z" />
<glyph unicode="z" horiz-adv-x="1015" d="M113 0v258l448 549h-448v258h790v-258l-446 -549h446v-258h-790z" />
<glyph unicode="{" horiz-adv-x="720" d="M51 547v239q117 29 159 72t42 119q0 29 -8 129t-8 141q0 201 107.5 283t352.5 90v-281q-98 -8 -124.5 -28.5t-26.5 -83.5q0 -37 8 -140.5t8 -132.5q0 -125 -47 -186t-166 -98q117 -39 165 -107.5t48 -195.5q0 -31 -8 -122t-8 -128q0 -66 27.5 -89.5t123.5 -31.5v-281 q-240 8 -350 93.5t-110 273.5q0 43 8 138t8 118q0 80 -43 129t-158 80z" />
<glyph unicode="|" d="M408 -489v2086h292v-2086h-292z" />
<glyph unicode="}" horiz-adv-x="720" d="M25 -12q98 8 124.5 28.5t26.5 83.5q0 37 -7 139.5t-7 133.5q0 125 47 186.5t166 97.5q-117 39 -165 108t-48 196q0 31 7 122t7 127q0 66 -27.5 89.5t-123.5 31.5v281q242 -8 351 -93t109 -274q0 -43 -7 -138t-7 -118q0 -80 42 -129t159 -80v-239q-119 -29 -160 -72 t-41 -119q0 -29 7 -129t7 -143q0 -199 -107.5 -281t-352.5 -92v283z" />
<glyph unicode="~" horiz-adv-x="1773" />
<glyph unicode="&#xa2;" horiz-adv-x="929" d="M25 532q0 436 389 469v216h237v-226l164 -22l-8 -244q-168 6 -250 6q-137 0 -189.5 -41t-52.5 -157.5t52.5 -158.5t193.5 -42l246 8l8 -244q-78 -12 -164 -24v-232h-237v221q-389 29 -389 471z" />
<glyph unicode="&#xa3;" horiz-adv-x="1212" d="M244 0v264h114v426h-67v260h67v117q0 217 86 299t248 82q37 0 116 -12.5t138 -26.5l62 -14v-287q-102 41 -172 41q-61 0 -87 -4t-55.5 -21.5t-39 -58.5t-13.5 -115h260v-264h-260q0 -70 -1 -211t-1 -211h244l145 35l45 -260l-172 -37q-109 0 -327.5 -1t-329.5 -1z" />
<glyph unicode="&#xa5;" horiz-adv-x="1148" d="M-10 1405h325l263 -449l260 449h325l-305 -547h191v-237h-322v-39v-37h322v-238h-322v-307h-295v307h-330v238h330v37v39h-330v237h197z" />
<glyph unicode="&#xa6;" d="M408 406h292v-895h-292v895zM408 698v899h292v-899h-292z" />
<glyph unicode="&#xa7;" d="M193 532q0 125 92 236q-92 70 -92 244q0 162 94 233.5t278 71.5l332 -29l-4 -67q-225 27 -328 26q-299 0 -299 -231q0 -74 17.5 -121t63.5 -74.5t94 -41t141 -27.5q188 -29 271 -88.5t83 -208.5q0 -135 -82 -271q74 -63 74 -198q0 -338 -367 -338q-59 0 -148 8t-149 14 l-61 6l6 68q233 -29 352 -29q293 0 293 269q0 63 -17.5 103t-62.5 62.5t-84 33t-123 22.5q-104 16 -161.5 32.5t-113.5 50.5t-77.5 93t-21.5 151zM266 537q0 -74 17.5 -121t63.5 -75t94 -41t141 -28q160 -25 217 -53q25 39 43 105.5t18 121.5q0 123 -68.5 168t-224.5 70 q-170 27 -229 55q-29 -37 -50.5 -95t-21.5 -107z" />
<glyph unicode="&#xa8;" horiz-adv-x="1773" d="M82 1239v315h295v-315h-295zM537 1239v315h297v-315h-297z" />
<glyph unicode="&#xa9;" d="M20 924.5q0 236.5 156 401.5t388.5 165t389 -165t156.5 -401.5t-156.5 -400.5t-389 -164t-388.5 164t-156 400.5zM90 924q0 -209 135 -352.5t339 -143.5t341 143.5t137 352.5t-137 354t-341 145t-339 -145t-135 -354zM332 922q0 162 49 244.5t184 82.5l158 -14l-2 -68 q-88 14 -156 15q-104 0 -134 -59.5t-30 -200.5q0 -131 34 -192.5t130 -61.5l156 16l2 -68q-92 -18 -158 -18q-133 0 -183 82t-50 242z" />
<glyph unicode="&#xaa;" horiz-adv-x="1101" d="M295 993q0 147 160 162l217 14v50q0 68 -25.5 92t-85.5 24l-223 -14l-4 65q147 16 227 17q90 0 133 -43t43 -143v-287q12 -41 78 -47l-4 -62q-68 2 -115 47q-133 -47 -254 -47q-66 0 -106.5 47t-40.5 125zM365 989q0 -98 84 -98q43 0 98 8t90 16l35 11v182l-207 -12 q-53 -6 -76.5 -30t-23.5 -77z" />
<glyph unicode="&#xab;" horiz-adv-x="1773" d="M469 541v77l354 275v-84l-286 -225l286 -250v-86q-282 240 -354 293zM909 541v77l357 275v-84l-289 -225l289 -250v-86q-285 240 -357 293z" />
<glyph unicode="&#xad;" horiz-adv-x="935" d="M150 459v280h638v-280h-638z" />
<glyph unicode="&#xae;" d="M20 924.5q0 236.5 156 401.5t388.5 165t389 -165t156.5 -401.5t-156.5 -400.5t-389 -164t-388.5 164t-156 400.5zM90 924q0 -209 135 -352.5t339 -143.5t341 143.5t137 352.5t-137 354t-341 145t-339 -145t-135 -354zM348 588v672h193q137 0 191 -43t54 -150 q0 -162 -127 -195l140 -284h-74l-141 278h-168v-278h-68zM416 936h170q72 0 101.5 28.5t29.5 102.5q0 70 -40 96.5t-130 26.5h-131v-254z" />
<glyph unicode="&#xaf;" horiz-adv-x="1773" />
<glyph unicode="&#xb0;" d="M201 1201q0 142 88 231.5t230.5 89.5t231.5 -89.5t89 -231.5t-89 -229t-231.5 -87t-230.5 87t-88 229zM360 1201q0 -73 43 -117t116 -44t119 44t46 117t-46 119t-119 46t-116 -46t-43 -119z" />
<glyph unicode="&#xb1;" d="M35 63v261h1069v-261h-1069zM35 639v260h401v252h260v-252h408v-260h-408v-233h-260v233h-401z" />
<glyph unicode="&#xb2;" d="M109 0v268l292 289l126 130q38 40 86.5 99.5t64.5 105.5t16 95q0 80 -53 116t-176 36q-63 0 -147.5 -7.5t-135.5 -15.5l-47 -8l-18 268q223 55 422 56q238 0 348 -101.5t110 -302.5q0 -158 -63.5 -271.5t-233.5 -279.5l-200 -196h520v-281h-911z" />
<glyph unicode="&#xb3;" d="M98 25l27 264q240 -29 401 -29q219 0 219 158q0 150 -204 149h-283v267h283q68 0 124 54t56 109q0 150 -211 150q-76 0 -167 -7t-146 -16l-56 -6l-26 258q246 55 415 56q270 0 381 -93.5t111 -294.5q0 -109 -40 -178t-124 -125q100 -53 145.5 -119.5t45.5 -197.5 q0 -227 -115 -338t-365 -111q-94 0 -210.5 12.5t-188.5 24.5z" />
<glyph unicode="&#xb4;" horiz-adv-x="1773" d="M166 1452l545 197l102 -269l-547 -188z" />
<glyph unicode="&#xb5;" d="M117 -469v1534h286v-614q2 -123 30 -171.5t118 -48.5q33 0 84 10.5t86 18.5l35 8v795h286v-1063h-286v45q-166 -70 -264 -70q-49 0 -89 7v-451h-286z" />
<glyph unicode="&#x3bc;" d="M117 -469v1534h286v-614q2 -123 30 -171.5t118 -48.5q33 0 84 10.5t86 18.5l35 8v795h286v-1063h-286v45q-166 -70 -264 -70q-49 0 -89 7v-451h-286z" />
<glyph unicode="&#xb6;" d="M-70 1070q0 185 108.5 303t287.5 118h848v-283h-127v-1208h-285v1208h-137v-1208h-285v651h-14q-178 0 -287 117t-109 302z" />
<glyph unicode="&#xb8;" horiz-adv-x="1773" d="M821 -356l6 55q18 -4 58.5 -4t50.5 15.5t10 62.5q0 45 -9 56t-50 11h-51v162h69v-102q66 -2 89.5 -29t23.5 -98q0 -78 -26.5 -108t-102.5 -30q-27 1 -68 9z" />
<glyph unicode="&#xb9;" d="M59 1100l461 305h273v-1405h-295v1063l-301 -199z" />
<glyph unicode="&#xba;" horiz-adv-x="1120" d="M307 1116q0 287 244 287q125 0 183.5 -68.5t58.5 -218.5q0 -295 -242 -295q-244 0 -244 295zM379 1116q0 -121 41 -173t132 -52t130 52t39 173t-39 170t-130 49t-132 -50t-41 -169z" />
<glyph unicode="&#xbb;" horiz-adv-x="1773" d="M512 248v86l287 250l-287 225v84l354 -275v-77q-71 -53 -354 -293zM952 248v86l287 250l-287 225v84l357 -275v-77q-74 -53 -357 -293z" />
<glyph unicode="&#xc0;" horiz-adv-x="1286" d="M51 0l326 1470h559l319 -1470h-294l-66 248h-494l-57 -248h-293zM276 1806l103 269l545 -197l-101 -260zM463 530h377l-140 670h-96z" />
<glyph unicode="&#xc1;" horiz-adv-x="1286" d="M51 0l326 1470h559l319 -1470h-294l-66 248h-494l-57 -248h-293zM299 1878l545 197l102 -269l-549 -188zM463 530h377l-140 670h-96z" />
<glyph unicode="&#xc2;" horiz-adv-x="1286" d="M51 0l326 1470h559l319 -1470h-294l-66 248h-494l-57 -248h-293zM256 1640l279 388h229l283 -388h-283l-113 166l-114 -166h-281zM463 530h377l-140 670h-96z" />
<glyph unicode="&#xc3;" horiz-adv-x="1286" d="M51 0l326 1470h559l319 -1470h-294l-66 248h-494l-57 -248h-293zM324 1833q119 117 202 117q70 0 151 -57.5t122 -57.5t129 86l47 -37q-109 -117 -176.5 -117t-147.5 57.5t-127 57.5q-55 0 -147 -86zM463 530h377l-140 670h-96z" />
<glyph unicode="&#xc4;" horiz-adv-x="1286" d="M51 0l326 1470h559l319 -1470h-294l-66 248h-494l-57 -248h-293zM274 1665v315h297v-315h-297zM463 530h377l-140 670h-96zM731 1665v315h295v-315h-295z" />
<glyph unicode="&#xc5;" horiz-adv-x="1286" d="M51 0l326 1470h559l319 -1470h-294l-66 248h-494l-57 -248h-293zM451 1806q0 86 58 143.5t143 57.5t142.5 -57.5t57.5 -143.5t-57.5 -143t-142.5 -57t-143 57t-58 143zM463 530h377l-140 670h-96zM524 1806.5q0 -55.5 37 -94.5t92 -39q53 0 91 39t38 94.5t-37.5 92 t-91.5 36.5q-55 0 -92 -36.5t-37 -92z" />
<glyph unicode="&#xc6;" horiz-adv-x="1910" d="M102 0l392 1470h1351v-282h-643v-303h514v-281h-514v-323h643v-281h-934v248h-452l-64 -248h-293zM530 530h381v611h-223z" />
<glyph unicode="&#xc7;" horiz-adv-x="1142" d="M86 735q0 418 124 589t429 171q82 0 186.5 -14.5t171.5 -32.5l66 -14l-8 -258q-258 31 -373 30q-117 0 -178.5 -38t-89 -139t-27.5 -294q0 -279 58.5 -375t244.5 -96q47 0 138.5 8.5t160.5 16.5l66 8l6 -264q-254 -57 -422 -58q-322 0 -437.5 177t-115.5 583zM530 -356 l5 55q18 -4 59 -4t50 15.5t9 62.5q0 45 -8 56t-51 11h-51v162h71v-102q66 -2 89.5 -29t23.5 -98q0 -78 -26.5 -108t-104.5 -30q-25 1 -66 9z" />
<glyph unicode="&#xc8;" horiz-adv-x="1216" d="M219 0v1491h871v-72h-793v-616h666v-72h-666v-659h793v-72h-871zM432 1919l35 66l407 -205l-30 -58z" />
<glyph unicode="&#xc9;" horiz-adv-x="1216" d="M160 0v1470h934v-282h-645v-328h516v-274h-516v-305h645v-281h-934zM332 1878l545 197l102 -269l-547 -188z" />
<glyph unicode="&#xca;" horiz-adv-x="1216" d="M160 0v1470h934v-282h-645v-328h516v-274h-516v-305h645v-281h-934zM270 1640l279 388h231l281 -388h-281l-112 166l-117 -166h-281z" />
<glyph unicode="&#xcb;" horiz-adv-x="1216" d="M160 0v1470h934v-282h-645v-328h516v-274h-516v-305h645v-281h-934zM289 1665v315h297v-315h-297zM745 1665v315h297v-315h-297z" />
<glyph unicode="&#xcc;" horiz-adv-x="481" d="M-113 1806l103 269l545 -197l-101 -260zM150 0v1470h292v-1470h-292z" />
<glyph unicode="&#xcd;" horiz-adv-x="481" d="M-135 1878l547 197l102 -269l-549 -188zM150 0v1470h292v-1470h-292z" />
<glyph unicode="&#xce;" horiz-adv-x="491" d="M-150 1640l279 388h231l281 -388h-281l-112 166l-117 -166h-281zM154 0v1470h292v-1470h-292z" />
<glyph unicode="&#xcf;" horiz-adv-x="481" d="M-135 1665v315h297v-315h-297zM150 0v1470h292v-1470h-292zM322 1665v315h296v-315h-296z" />
<glyph unicode="&#xd0;" horiz-adv-x="1333" d="M35 594v280h680v-280h-680zM150 0v1470h483q186 0 308 -40.5t188.5 -133t92 -217.5t25.5 -317q0 -201 -22.5 -331t-88 -233.5t-189.5 -150.5t-314 -47h-483zM438 279h195q82 0 141.5 22.5t92 58t51 102t23.5 132t5 168.5q0 84 -3 137t-14 106.5t-33 84t-56.5 55t-86 35 t-120.5 10.5h-195v-911z" />
<glyph unicode="&#xd1;" horiz-adv-x="1462" d="M125 0v1470h463l407 -1099h31v1099h295v-1470h-449l-421 1100h-31v-1100h-295zM403 1833q119 117 201 117q74 0 155 -57.5t118.5 -57.5t130.5 86l47 -37q-109 -117 -177.5 -117t-148.5 57.5t-127 57.5q-55 0 -145 -86z" />
<glyph unicode="&#xd2;" horiz-adv-x="1396" d="M98 725q0 389 136.5 579.5t464 190.5t463.5 -190.5t136 -579.5q0 -387 -135 -568.5t-464.5 -181.5t-465 181.5t-135.5 568.5zM344 1806l102 269l547 -197l-100 -260zM401 725q0 -250 62.5 -358.5t234.5 -108.5t235.5 108.5t63.5 358.5q0 252 -64.5 369.5t-234.5 117.5 t-233.5 -117.5t-63.5 -369.5z" />
<glyph unicode="&#xd3;" horiz-adv-x="1396" d="M98 725q0 389 136.5 579.5t464 190.5t463.5 -190.5t136 -579.5q0 -387 -135 -568.5t-464.5 -181.5t-465 181.5t-135.5 568.5zM324 1878l544 197l103 -269l-547 -188zM401 725q0 -250 62.5 -358.5t234.5 -108.5t235.5 108.5t63.5 358.5q0 252 -64.5 369.5t-234.5 117.5 t-233.5 -117.5t-63.5 -369.5z" />
<glyph unicode="&#xd4;" horiz-adv-x="1396" d="M98 725q0 389 136.5 579.5t464 190.5t463.5 -190.5t136 -579.5q0 -387 -135 -568.5t-464.5 -181.5t-465 181.5t-135.5 568.5zM305 1640l279 388h229l283 -388h-283l-113 166l-114 -166h-281zM401 725q0 -250 62.5 -358.5t234.5 -108.5t235.5 108.5t63.5 358.5 q0 252 -64.5 369.5t-234.5 117.5t-233.5 -117.5t-63.5 -369.5z" />
<glyph unicode="&#xd5;" horiz-adv-x="1396" d="M98 725q0 389 136.5 579.5t464 190.5t463.5 -190.5t136 -579.5q0 -387 -135 -568.5t-464.5 -181.5t-465 181.5t-135.5 568.5zM373 1833q119 117 202 117q72 0 153 -57.5t120 -57.5t129 86l47 -37q-109 -117 -176.5 -117t-147 57.5t-127.5 57.5q-55 0 -147 -86zM401 725 q0 -250 62.5 -358.5t234.5 -108.5t235.5 108.5t63.5 358.5q0 252 -64.5 369.5t-234.5 117.5t-233.5 -117.5t-63.5 -369.5z" />
<glyph unicode="&#xd6;" horiz-adv-x="1396" d="M98 725q0 389 136.5 579.5t464 190.5t463.5 -190.5t136 -579.5q0 -387 -135 -568.5t-464.5 -181.5t-465 181.5t-135.5 568.5zM324 1665v315h297v-315h-297zM401 725q0 -250 62.5 -358.5t234.5 -108.5t235.5 108.5t63.5 358.5q0 252 -64.5 369.5t-234.5 117.5 t-233.5 -117.5t-63.5 -369.5zM780 1665v315h295v-315h-295z" />
<glyph unicode="&#xd7;" d="M344 264l369 371l-369 371l184 182l369 -371l371 371l184 -182l-371 -371l371 -371l-184 -182l-371 367l-369 -367z" />
<glyph unicode="&#xd8;" horiz-adv-x="1396" d="M100 725q0 389 136.5 579.5t463.5 190.5q100 0 185 -18l119 258l266 -99l-137 -295q168 -180 167 -616q0 -387 -135 -568.5t-465 -181.5q-100 0 -196 21l-125 -270l-258 116l135 287q-156 174 -156 596zM403 725q0 -156 19 -240l336 723q-37 4 -58 4q-53 0 -104 -16 q-109 -33 -151 -146.5t-42 -324.5zM629 262q47 -4 71 -4q172 0 235.5 108.5t63.5 358.5q0 178 -26 274z" />
<glyph unicode="&#xd9;" horiz-adv-x="1366" d="M139 489v981h293v-981q0 -121 67.5 -171t190.5 -50q258 0 258 221v981h293v-981q0 -266 -137 -386.5t-413.5 -120.5t-414 120.5t-137.5 386.5zM340 1806l102 269l547 -197l-100 -260z" />
<glyph unicode="&#xda;" horiz-adv-x="1366" d="M139 489v981h293v-981q0 -121 67.5 -171t190.5 -50q258 0 258 221v981h293v-981q0 -266 -137 -386.5t-413.5 -120.5t-414 120.5t-137.5 386.5zM319 1878l545 197l103 -269l-547 -188z" />
<glyph unicode="&#xdb;" horiz-adv-x="1366" d="M139 489v981h293v-981q0 -121 67.5 -171t190.5 -50q258 0 258 221v981h293v-981q0 -266 -137 -386.5t-413.5 -120.5t-414 120.5t-137.5 386.5zM301 1640l279 388h229l281 -388h-281l-113 166l-114 -166h-281z" />
<glyph unicode="&#xdc;" horiz-adv-x="1366" d="M139 489v981h293v-981q0 -121 67.5 -171t190.5 -50q258 0 258 221v981h293v-981q0 -266 -137 -386.5t-413.5 -120.5t-414 120.5t-137.5 386.5zM322 1665v315h296v-315h-296zM778 1665v315h295v-315h-295z" />
<glyph unicode="&#xdd;" horiz-adv-x="1148" d="M-10 1470h325l263 -514l260 514h325l-436 -843v-627h-295v629zM168 1878l545 197l102 -269l-547 -188z" />
<glyph unicode="&#xde;" d="M47 0v1470h293v-208h240q520 0 520 -510q0 -258 -133 -399.5t-387 -141.5h-240v-211h-293zM340 496h238q109 0 166 67.5t57 188.5q0 227 -223 227h-238v-483z" />
<glyph unicode="&#xdf;" horiz-adv-x="1773" d="M455 0v1133q0 221 66.5 299.5t258.5 78.5q219 0 311.5 -67.5t92.5 -218.5q0 -92 -32 -138.5t-103 -74.5q-18 -6 -37 -13.5t-30 -12.5t-24.5 -10t-20.5 -8t-14.5 -8.5t-10.5 -8.5t-6 -9t-4 -12t-1 -15q0 -20 23.5 -38.5t154.5 -96.5l71 -43l60 -37l48 -29 q28 -17 41.5 -27.5t28.5 -26t21.5 -26.5t11.5 -25.5t5 -30.5q0 -152 -19.5 -247t-73.5 -169t-154.5 -105.5t-260.5 -31.5l-166 8l8 71q121 -8 158 -8q143 0 230.5 28t130.5 96.5t54 144t11 213.5q0 27 -56.5 66.5t-201.5 123.5q-141 80 -174 109.5t-33 80.5q0 33 7.5 53.5 t25.5 35t32.5 21.5t54.5 23l67 25q68 31 83 54.5t15 97.5q0 119 -74 167t-250 48q-154 0 -202 -62.5t-48 -271.5v-1106h-75z" />
<glyph unicode="&#xe0;" horiz-adv-x="1140" d="M45 324q0 170 90 242.5t281 84.5l229 17v53q0 41 -29.5 67.5t-76.5 26.5q-70 0 -173.5 -5t-170.5 -11l-70 -6l-8 249q285 45 438 45q188 0 281.5 -83.5t93.5 -280.5v-395q0 -61 13 -82t56 -29l-8 -242q-129 0 -186 15.5t-117 56.5q-178 -72 -326 -72q-156 0 -236.5 92.5 t-80.5 256.5zM164 1380l102 269l545 -197l-100 -260zM332 332q0 -113 88 -113q39 0 95 7t93 18l37 8v197l-194 -9q-119 -6 -119 -108z" />
<glyph unicode="&#xe1;" horiz-adv-x="1140" d="M45 324q0 -164 81 -256.5t236 -92.5q66 0 147 17.5t130 38.5l49 16q59 -41 116.5 -56.5t186.5 -15.5l8 242q-43 8 -56 28.5t-13 82.5v395q0 197 -93.5 280.5t-281.5 83.5q-68 0 -177.5 -11t-184.5 -23l-76 -11l8 -249q256 23 414 22q47 0 76.5 -26.5t29.5 -67.5v-53 l-229 -17q-190 -12 -280.5 -84.5t-90.5 -242.5zM270 1452l545 197l103 -269l-547 -188zM332 332q0 102 119 108l194 9v-197q-137 -33 -225 -33t-88 113z" />
<glyph unicode="&#xe2;" horiz-adv-x="1140" d="M45 324q0 -164 81 -256.5t236 -92.5q66 0 147 17.5t130 38.5l49 16q59 -41 116.5 -56.5t186.5 -15.5l8 242q-43 8 -56 28.5t-13 82.5v395q0 197 -93.5 280.5t-281.5 83.5q-68 0 -177.5 -11t-184.5 -23l-76 -11l8 -249q256 23 414 22q47 0 76.5 -26.5t29.5 -67.5v-53 l-229 -17q-190 -12 -280.5 -84.5t-90.5 -242.5zM127 1214l281 388h229l281 -388h-281l-113 166l-114 -166h-283zM332 332q0 102 119 108l194 9v-197q-137 -33 -225 -33t-88 113z" />
<glyph unicode="&#xe3;" horiz-adv-x="1140" d="M45 324q0 -164 81 -256.5t236 -92.5q66 0 147 17.5t130 38.5l49 16q59 -41 116.5 -56.5t186.5 -15.5l8 242q-43 8 -56 28.5t-13 82.5v395q0 197 -93.5 280.5t-281.5 83.5q-68 0 -177.5 -11t-184.5 -23l-76 -11l8 -249q256 23 414 22q47 0 76.5 -26.5t29.5 -67.5v-53 l-229 -17q-190 -12 -280.5 -84.5t-90.5 -242.5zM197 1407q119 117 200 117q72 0 153 -57.5t121 -57.5t130 86l47 -37q-109 -117 -177.5 -117t-148.5 57.5t-127 57.5q-55 0 -145 -86zM332 332q0 102 119 108l194 9v-197q-137 -33 -225 -33t-88 113z" />
<glyph unicode="&#xe4;" horiz-adv-x="1140" d="M45 324q0 -164 81 -256.5t236 -92.5q66 0 147 17.5t130 38.5l49 16q59 -41 116.5 -56.5t186.5 -15.5l8 242q-43 8 -56 28.5t-13 82.5v395q0 197 -93.5 280.5t-281.5 83.5q-68 0 -177.5 -11t-184.5 -23l-76 -11l8 -249q256 23 414 22q47 0 76.5 -26.5t29.5 -67.5v-53 l-229 -17q-190 -12 -280.5 -84.5t-90.5 -242.5zM143 1239v315h295v-315h-295zM332 332q0 102 119 108l194 9v-197q-137 -33 -225 -33t-88 113zM598 1239v315h297v-315h-297z" />
<glyph unicode="&#xe5;" horiz-adv-x="1140" d="M45 324q0 -164 81 -256.5t236 -92.5q66 0 147 17.5t130 38.5l49 16q59 -41 116.5 -56.5t186.5 -15.5l8 242q-43 8 -56 28.5t-13 82.5v395q0 197 -93.5 280.5t-281.5 83.5q-68 0 -177.5 -11t-184.5 -23l-76 -11l8 -249q256 23 414 22q47 0 76.5 -26.5t29.5 -67.5v-53 l-229 -17q-190 -12 -280.5 -84.5t-90.5 -242.5zM322 1380q0 86 57 143.5t142 57.5t143.5 -57.5t58.5 -143.5t-58.5 -143t-142.5 -57q-88 0 -144 57t-56 143zM332 332q0 102 119 108l194 9v-197q-137 -33 -225 -33t-88 113zM393 1380.5q0 -55.5 38 -94.5t93 -39q53 0 90 39 t37 94.5t-36.5 92t-90.5 36.5q-55 0 -93 -36.5t-38 -92z" />
<glyph unicode="&#xe6;" horiz-adv-x="1763" d="M111 324q0 170 93 243.5t277 83.5l230 17v53q0 41 -30 67.5t-77 26.5q-70 0 -173 -5t-171 -11l-67 -6l-11 249q285 45 441 45q182 0 274 -77q111 78 283 77q465 0 465 -479l-23 -198h-625q2 -92 51.5 -133t163.5 -41l394 20l4 -221q-244 -59 -443 -60q-217 0 -325 101 l-49 -23q-178 -78 -365 -78q-156 0 -236.5 92.5t-80.5 256.5zM397 332q0 -113 88 -113q39 0 95.5 7t93.5 18l37 8q0 33 -1 99.5t-1 97.5l-191 -9q-121 -6 -121 -108zM997 629h367q0 113 -42 160t-142 47q-102 0 -142.5 -49t-40.5 -158z" />
<glyph unicode="&#xe7;" horiz-adv-x="927" d="M74 543q0 285 106.5 414.5t343.5 129.5q55 0 140.5 -11t142.5 -21l57 -11l-8 -245q-168 16 -250 16q-147 0 -194 -57.5t-47 -214.5q0 -174 48 -234.5t195 -60.5l248 16l8 -246q-227 -43 -346 -43q-238 0 -341 133.5t-103 434.5zM455 -356l4 55q18 -4 58 -4t50.5 15.5 t10.5 62.5q0 45 -8.5 56t-51.5 11h-51v162h70v-102q66 -2 89 -29t23 -98q0 -78 -26.5 -108t-102.5 -30q-26 1 -65 9z" />
<glyph unicode="&#xe8;" horiz-adv-x="1056" d="M70 518q0 569 471 569q465 0 465 -479l-23 -198h-625q2 -92 51.5 -133t163.5 -41l394 20l4 -221q-244 -59 -443 -60q-242 0 -350 127t-108 416zM147 1380l103 269l545 -197l-101 -260zM356 629h369q0 113 -42 160t-142.5 47t-141.5 -49t-43 -158z" />
<glyph unicode="&#xe9;" horiz-adv-x="1056" d="M70 518q0 569 471 569q465 0 465 -479l-23 -198h-625q2 -92 51.5 -133t163.5 -41l394 20l4 -221q-244 -59 -443 -60q-242 0 -350 127t-108 416zM215 1452l545 197l102 -269l-547 -188zM356 629h369q0 113 -42 160t-142.5 47t-141.5 -49t-43 -158z" />
<glyph unicode="&#xea;" horiz-adv-x="1056" d="M70 518q0 569 471 569q465 0 465 -479l-23 -198h-625q2 -92 51.5 -133t163.5 -41l394 20l4 -221q-244 -59 -443 -60q-242 0 -350 127t-108 416zM170 1214l279 388h231l281 -388h-281l-113 166l-116 -166h-281zM356 629h369q0 113 -42 160t-142.5 47t-141.5 -49t-43 -158z " />
<glyph unicode="&#xeb;" horiz-adv-x="1056" d="M70 518q0 569 471 569q465 0 465 -479l-23 -198h-625q2 -92 51.5 -133t163.5 -41l394 20l4 -221q-244 -59 -443 -60q-242 0 -350 127t-108 416zM195 1239v315h294v-315h-294zM356 629h369q0 113 -42 160t-142.5 47t-141.5 -49t-43 -158zM649 1239v315h297v-315h-297z" />
<glyph unicode="&#xec;" horiz-adv-x="555" d="M-143 1380l102 269l545 -197l-98 -260zM143 0v1063h285v-1063h-285z" />
<glyph unicode="&#xed;" horiz-adv-x="555" d="M-33 1452l547 197l102 -269l-548 -188zM143 0v1063h285v-1063h-285z" />
<glyph unicode="&#xee;" horiz-adv-x="555" d="M-117 1214l279 388h229l283 -388h-283l-112 166l-115 -166h-281zM143 0v1063h285v-1063h-285z" />
<glyph unicode="&#xef;" horiz-adv-x="555" d="M-98 1239v315h297v-315h-297zM143 0v1063h285v-1063h-285zM358 1239v315h295v-315h-295z" />
<glyph unicode="&#xf0;" />
<glyph unicode="&#xf1;" horiz-adv-x="1220" d="M164 0h285v786q135 35 204 35q90 0 120 -64.5t30 -201.5v-555h284v555q0 276 -80.5 404t-293.5 128q-43 0 -109.5 -17t-109.5 -36l-45 -18v47h-285v-1063zM309 1407q119 117 203 117q72 0 152.5 -57.5t118.5 -57.5t130 86l48 -37q-109 -117 -177.5 -117t-148.5 57.5 t-125 57.5q-55 0 -148 -86z" />
<glyph unicode="&#xf2;" horiz-adv-x="1140" d="M164 1380l102 269l545 -197l-100 -260zM188 532.5q0 264.5 113 409.5t377 145t376.5 -145t112.5 -409.5t-112.5 -411t-376.5 -146.5t-377 146.5t-113 411zM477 532.5q0 -155.5 44 -228.5t157 -73t156 73t43 228.5t-43 227t-156 71.5t-157 -71.5t-44 -227z" />
<glyph unicode="&#xf3;" horiz-adv-x="1140" d="M188 532.5q0 -264.5 113 -411t377 -146.5t376.5 146.5t112.5 411t-112.5 409.5t-376.5 145t-377 -145t-113 -409.5zM227 1452l547 197l100 -269l-546 -188zM477 532.5q0 155.5 44 227t157 71.5t156 -71.5t43 -227t-43 -228.5t-156 -73t-157 73t-44 228.5z" />
<glyph unicode="&#xf4;" horiz-adv-x="1140" d="M166 1214l278 388h232l280 -388h-280l-113 166l-117 -166h-280zM188 532.5q0 -264.5 113 -411t377 -146.5t376.5 146.5t112.5 411t-112.5 409.5t-376.5 145t-377 -145t-113 -409.5zM477 532.5q0 155.5 44 227t157 71.5t156 -71.5t43 -227t-43 -228.5t-156 -73t-157 73 t-44 228.5z" />
<glyph unicode="&#xf5;" horiz-adv-x="1140" d="M188 532.5q0 -264.5 113 -411t377 -146.5t376.5 146.5t112.5 411t-112.5 409.5t-376.5 145t-377 -145t-113 -409.5zM233 1407q121 117 203 117q72 0 153 -57.5t121 -57.5t130 86l47 -37q-109 -117 -177.5 -117t-148.5 57.5t-127 57.5q-55 0 -147 -86zM477 532.5 q0 155.5 44 227t157 71.5t156 -71.5t43 -227t-43 -228.5t-156 -73t-157 73t-44 228.5z" />
<glyph unicode="&#xf6;" horiz-adv-x="1140" d="M184 1239v315h297v-315h-297zM188 532.5q0 -264.5 113 -411t377 -146.5t376.5 146.5t112.5 411t-112.5 409.5t-376.5 145t-377 -145t-113 -409.5zM477 532.5q0 155.5 44 227t157 71.5t156 -71.5t43 -227t-43 -228.5t-156 -73t-157 73t-44 228.5zM641 1239v315h297v-315 h-297z" />
<glyph unicode="&#xf7;" d="M20 487v261h1080v-261h-1080zM428 98v281h281v-281h-281zM428 856v281h281v-281h-281z" />
<glyph unicode="&#xf8;" horiz-adv-x="1120" d="M127 555q0 295 99.5 411.5t338.5 116.5q98 0 176 -24l86 205l64 -25l-86 -209q188 -109 188 -479q0 -313 -88 -441t-340 -128q-104 0 -182 18l-88 -221l-66 20l90 221q-109 49 -150.5 173t-41.5 362zM207 555q0 -207 27.5 -313.5t113.5 -151.5l367 903q-70 23 -150 23 q-207 0 -282.5 -97.5t-75.5 -363.5zM412 63q59 -14 153 -14q115 0 185.5 28.5t106.5 98.5t46 153t10 222q0 311 -137 410z" />
<glyph unicode="&#xf9;" horiz-adv-x="1087" d="M164 508v555h285v-555q0 -164 24.5 -220.5t124.5 -56.5q33 0 84 10.5t84 18.5l37 8v795h284v-1063h-284v45q-166 -70 -264 -70q-223 0 -299 121t-76 412zM182 1380l103 269l546 -197l-100 -260z" />
<glyph unicode="&#xfa;" horiz-adv-x="1087" d="M164 508q0 -291 75.5 -412t299.5 -121q43 0 108.5 16.5t110.5 33.5l45 20v-45h284v1063h-284v-795q-133 -37 -205 -37q-100 0 -124.5 56.5t-24.5 220.5v555h-285v-555zM248 1452l545 197l102 -269l-547 -188z" />
<glyph unicode="&#xfb;" horiz-adv-x="1087" d="M164 508q0 -291 75.5 -412t299.5 -121q43 0 108.5 16.5t110.5 33.5l45 20v-45h284v1063h-284v-795q-133 -37 -205 -37q-100 0 -124.5 56.5t-24.5 220.5v555h-285v-555zM184 1214l281 388h229l281 -388h-281l-112 166l-115 -166h-283z" />
<glyph unicode="&#xfc;" horiz-adv-x="1087" d="M164 508q0 -291 75.5 -412t299.5 -121q43 0 108.5 16.5t110.5 33.5l45 20v-45h284v1063h-284v-795q-133 -37 -205 -37q-100 0 -124.5 56.5t-24.5 220.5v555h-285v-555zM205 1239v315h295v-315h-295zM659 1239v315h297v-315h-297z" />
<glyph unicode="&#xfd;" horiz-adv-x="1021" d="M-2 1063h281l194 -784h49l193 784h282l-264 -1063l-108 -444h-283l109 444h-191zM193 1452l544 197l103 -269l-549 -188z" />
<glyph unicode="&#xfe;" horiz-adv-x="1144" d="M156 -446v1937h284v-451q137 47 232 47q223 0 326.5 -122.5t103.5 -421.5q0 -332 -120 -450t-411 -118q-18 0 -64 3.5t-67 3.5v-428h-284zM440 244q98 -12 131 -13q141 0 190.5 68t49.5 244q0 154 -45 217t-133 63l-193 -16v-563z" />
<glyph unicode="&#xff;" horiz-adv-x="1021" d="M63 1065l330 -1065h131l-153 -489h78l489 1554h-80l-315 -997h-86l-314 997h-80zM291 1360v131h76v-131h-76zM653 1360v131h76v-131h-76z" />
<glyph unicode="&#x152;" horiz-adv-x="2009" d="M127 735q0 418 125 589t430 171q92 0 248 -25h934v-282h-643v-303h516v-281h-516v-323h643v-281h-928q-162 -25 -254 -25q-322 0 -438.5 177t-116.5 583zM430 735q0 -279 58.5 -375t244.5 -96q53 0 197 12v916q-147 14 -205 14q-119 0 -179.5 -38t-88 -139t-27.5 -294z " />
<glyph unicode="&#x153;" horiz-adv-x="1865" d="M123 532.5q0 264.5 113.5 409.5t377.5 145q223 0 344 -114q119 115 326 114q465 0 465 -479l-23 -198h-624q2 -92 51 -133t164 -41l393 20l4 -221q-244 -59 -442 -60q-217 0 -326 101q-119 -100 -332 -101q-264 0 -377.5 146.5t-113.5 411zM414 532.5q0 -155.5 43 -228.5 t156.5 -73t156.5 73t43 228.5t-43 227t-156.5 71.5t-156.5 -71.5t-43 -227zM1100 629h368q0 113 -42 160t-142 47t-142 -50.5t-42 -156.5z" />
<glyph unicode="&#x178;" horiz-adv-x="1148" d="M53 1491h88l437 -764l430 764h90l-482 -850v-641h-77v641zM356 1786v131h74v-131h-74zM717 1786v131h76v-131h-76z" />
<glyph unicode="&#x2c6;" horiz-adv-x="1773" d="M479 1214l279 388h231l281 -388h-281l-115 166l-114 -166h-281z" />
<glyph unicode="&#x2dc;" horiz-adv-x="1773" d="M166 1407q119 117 203 117q70 0 150.5 -57.5t121.5 -57.5t129 86l47 -37q-109 -117 -176.5 -117t-147 57.5t-126.5 57.5q-55 0 -148 -86z" />
<glyph unicode="&#x2013;" horiz-adv-x="1773" />
<glyph unicode="&#x2014;" horiz-adv-x="1773" />
<glyph unicode="&#x2018;" horiz-adv-x="360" d="M-47 1022l123 526h276l-106 -526h-293z" />
<glyph unicode="&#x2019;" horiz-adv-x="360" d="M8 1122l107 527h291l-123 -527h-275z" />
<glyph unicode="&#x201c;" horiz-adv-x="1773" />
<glyph unicode="&#x201d;" horiz-adv-x="755" d="M70 1470h274l-10 -532h-260zM428 1470h274l-10 -532h-260z" />
<glyph unicode="&#x2022;" d="M526 0v170h84v-170h-84z" />
<glyph unicode="&#x2026;" horiz-adv-x="1583" d="M1153 0v354h307v-354h-307zM624 0v354h307v-354h-307zM96 0v354h307v-354h-307z" />
<glyph unicode="&#x2039;" horiz-adv-x="1773" />
<glyph unicode="&#x203a;" d="M135 119v299l457 239l-457 236v297l737 -387v-299z" />
<glyph unicode="&#x20ac;" horiz-adv-x="1261" d="M145 406v221h113v75v60h-113v221h127q33 248 151 348.5t368 100.5q80 0 175 -11.5t150 -19.5l55 -10l-8 -258q-215 8 -329 8q-121 0 -176.5 -32t-77.5 -128h444v-219h-463v-60v-75h463v-221h-442q23 -84 81 -113t179 -29l321 10l6 -264q-211 -35 -378 -35 q-256 0 -371 99.5t-148 331.5h-127z" />
<glyph unicode="&#x2122;" d="M14 1257v66h426v-66h-176v-550h-69v550h-181zM516 705v618h107l178 -516l186 516h107v-618h-70v550l-186 -526h-76l-178 526v-550h-68z" />
<glyph unicode="&#xe000;" horiz-adv-x="1065" d="M0 1065h1065v-1065h-1065v1065z" />
<glyph unicode="&#xfb01;" horiz-adv-x="1300" d="M874 0v1063h285v-1063h-285zM874 1202v291h285v-291h-285zM37 805v258h115v49q0 227 67.5 313t243.5 86q31 0 92 -6t104 -14l46 -6l-5 -232q-94 4 -161 4q-59 0 -81 -33.5t-22 -113.5v-47h258v-258h-258v-805h-284v805h-115z" />
<glyph unicode="&#xfb02;" horiz-adv-x="1300" d="M874 0v1491h285v-1491h-285zM37 805v258h115v49q0 227 67.5 313t243.5 86q31 0 92 -6t104 -14l46 -6l-5 -232q-94 4 -161 4q-59 0 -81 -33.5t-22 -113.5v-47h258v-258h-258v-805h-284v805h-115z" />
<glyph unicode="&#xfb03;" horiz-adv-x="2031" d="M1603 0v1063h285v-1063h-285zM1603 1202v291h285v-291h-285zM768 805v258h115v49q0 227 67.5 313t243.5 86q31 0 92 -6t104 -14l46 -6l-5 -232q-94 4 -161 4q-59 0 -81 -33.5t-22 -113.5v-47h258v-258h-258v-805h-284v805h-115zM37 805v258h115v49q0 227 67.5 313 t243.5 86q31 0 92 -6t104 -14l46 -6l-5 -232q-94 4 -161 4q-59 0 -81 -33.5t-22 -113.5v-47h258v-258h-258v-805h-284v805h-115z" />
<glyph unicode="&#xfb04;" horiz-adv-x="2031" d="M1603 0v1491h285v-1491h-285zM768 805v258h115v49q0 227 67.5 313t243.5 86q31 0 92 -6t104 -14l46 -6l-5 -232q-94 4 -161 4q-59 0 -81 -33.5t-22 -113.5v-47h258v-258h-258v-805h-284v805h-115zM37 805v258h115v49q0 227 67.5 313t243.5 86q31 0 92 -6t104 -14l46 -6 l-5 -232q-94 4 -161 4q-59 0 -81 -33.5t-22 -113.5v-47h258v-258h-258v-805h-284v805h-115z" />
<glyph horiz-adv-x="499" />
</font>
</defs>
</svg>
