<svg xmlns="http://www.w3.org/2000/svg" viewBox="0 0 1024 1024"><path fill="#423228" d="M301.5 307.98c-12.73 35.86-12.78 58.15-12.78 89.07 0 141.73 166.52 304.28 222.62 302.87 56.1-1.4 222.6-161.14 222.6-302.87 0-31.7 3.05-44.53-13.4-91.2-16.44-46.68-135.26-113.6-228.4-106.48-80 6.12-177.93 72.76-190.65 108.6z"/><path fill="#5E483C" d="M662.56 255.83C615.68 226.36 549.1 203 492.13 207.37c-24.9 1.9-51.55 9.68-76.82 20.56 22.9 18.13 66.3 33.86 117.2 40.44 55.4 7.15 104.8 1.58 130.1-12.54z"/><path fill="#659D32" d="M530.9 822.08l3.24-.2c1.94-.12 3.9-.23 5.84-.38 1.03-.07 2.05-.18 3.08-.27 1.98-.17 3.96-.33 5.92-.53 1.1-.1 2.22-.25 3.33-.38 1.9-.2 3.8-.4 5.7-.64 1.1-.13 2.1-.3 3.1-.43 2-.27 3.9-.52 5.8-.8l2.3-.38c2.2-.35 4.4-.7 6.6-1.1.7-.12 1.4-.26 2.1-.4 2.3-.4 4.5-.8 6.7-1.27l1.9-.4c2.3-.48 4.5-.96 6.8-1.48l1.8-.45c2.3-.53 4.5-1.07 6.8-1.65l1.6-.43c2.3-.7 4.6-1.3 6.9-1.9l1.1-.4c2.5-.7 4.9-1.4 7.3-2.2l1-.3 7.3-2.4c.4-.1.7-.3 1.1-.4 2.4-.9 4.8-1.7 7.2-2.6l.7-.3c2.5-1 5-1.9 7.5-2.9l.5-.2c2.5-1 5.1-2.1 7.6-3.1l.2-.1c2.6-1.1 5.2-2.2 7.7-3.4l.4-.2c123-55.9 208.6-179.9 208.6-323.9 0-147.3-89.6-273.7-217.3-327.6C717.2 203.6 758 293.5 758 393c0 158.4-186.4 336.4-246.8 338.53C450.3 734 264 551.7 264 393.3c0-98 39.65-186.74 103.8-251.05-124.15 55.5-210.65 180-210.65 324.75 0 114.6 54.27 216.54 138.48 281.55l.04.06c2.2 1.7 4.42 3.4 6.66 5.1l.1.1c2.2 1.7 4.43 3.3 6.7 4.9l.2.1c2.2 1.6 4.5 3.1 6.74 4.6.1.1.2.1.28.2 2.25 1.5 4.5 3 6.8 4.4l.37.3 6.8 4.2.5.2c2.25 1.4 4.5 2.7 6.8 4l.6.3c2.26 1.3 4.5 2.5 6.8 3.8l.75.4 6.76 3.5.9.5 6.7 3.3c.37.16.73.3 1.1.5 2.2 1 4.4 2.05 6.62 3.04l1.28.6c2.18.98 4.36 1.9 6.55 2.8l1.45.6c2.14.9 4.3 1.78 6.47 2.6l1.64.6c2.1.87 4.24 1.68 6.4 2.4l1.84.7c2.08.7 4.16 1.45 6.26 2.15l2.06.7c2.05.7 4.1 1.4 6.15 2l2.27.7 6.05 1.8 2.48.7c1.96.56 3.9 1.1 5.9 1.6l2.74.67c1.9.46 3.8.93 5.7 1.36l2.9.7 5.6 1.2 3.1.6c1.8.37 3.6.7 5.4 1l3.5.6c1.7.3 3.4.6 5.2.84 1.3.2 2.5.4 3.8.55 1.6.2 3.2.47 4.9.67l4.2.44c1.5.2 3.1.33 4.6.5 1.4.1 2.9.23 4.4.4 1.5.1 3 .24 4.5.35 1.6.13 3.3.2 4.9.3l4.1.3c1.8.1 3.7.2 5.6.25 1.1.07 2.3.1 3.4.1 3 .1 6.1.1 9.1.1s6.1 0 9.2-.1l2.3-.1c2.2 0 4.5-.1 6.7-.2z"/><path fill="#618931" d="M522.4 738.77c7.95 0 44.55-19.97 58.42-30.36 27.73-20.7 57.44-49.4 83.67-80.7 29.6-35.4 54.6-73.6 72-110.6 20.6-43.6 31-85.2 31-123.7 0-50-9.9-98.4-29.5-144-11.8-27.5-41.5-73.1-59.4-96.7l-27.9-13.2c65.9 64.5 106.8 154.4 106.8 253.9 0 158.4-186.4 336.4-246.8 338.6-6.3 0-11.5-1.4-11.9-1.4 0 0 8.7 8.3 23.5 8.3zM367.74 142.34C243.6 197.8 157.1 322.32 157.1 467.06c0 114.6 54.27 216.54 138.48 281.55l.04.1c2.2 1.7 4.43 3.4 6.67 5.1l.1.1c2.2 1.7 4.4 3.3 6.7 4.9l.2.1c2.2 1.6 4.5 3.1 6.7 4.6.1.1.2.1.2.2 2.2 1.5 4.5 3 6.8 4.4l.3.2c2.2 1.5 4.5 2.8 6.8 4.2l.5.3c2.2 1.4 4.5 2.7 6.8 4l.6.3c2.2 1.3 4.5 2.6 6.8 3.8l.7.4 6.7 3.5.9.5 6.7 3.3c.4.2.7.3 1.1.5 2.2 1 4.4 2.1 6.6 3.1l1.3.6c2.2 1 4.3 1.9 6.5 2.8l1.4.6c2.1.9 4.3 1.8 6.4 2.6l1.6.6c2.1.9 4.2 1.7 6.4 2.4l1.8.7c2.1.8 4.1 1.5 6.2 2.2l2 .7c2.1.7 4.1 1.4 6.2 2l2.23.7c2 .6 4 1.2 6.1 1.8l2.43.7c2 .6 3.9 1.1 5.9 1.6l2.75.7c1.9.5 3.8 1 5.7 1.4l3 .7 5.5 1.2 3.2.6c1.8.33 3.6.7 5.4 1l3.5.5c1.7.3 3.46.6 5.2.88 1.3.2 2.6.4 3.86.55 1.68.3 3.3.5 4.9.7l4.2.5c1.6.2 3.1.4 4.7.56 1.5.2 3 .3 4.4.4 1.5.1 3 .3 4.6.4l4.9.3 4.1.3c1.9.1 3.8.17 5.68.2l3.4.17c3.04.07 6.1.1 9.1.1 3.1 0 6.14-.03 9.2-.1l2.35-.1c2.3-.1 4.5-.14 6.8-.25l3.22-.2c1.94-.17 3.9-.3 5.83-.4l3.1-.3c1.9-.16 3.9-.3 5.9-.5 1.1-.1 2.2-.25 3.3-.37 1.9-.2 3.76-.4 5.6-.64 1.06-.1 2.1-.3 3.1-.4 1.9-.3 3.88-.5 5.8-.8l2.2-.4c2.2-.36 4.4-.7 6.58-1.1.7-.1 1.4-.27 2.06-.4 2.23-.4 4.47-.86 6.7-1.3.66-.15 1.3-.3 1.9-.4l6.8-1.5 1.8-.45c2.23-.5 4.5-1.1 6.7-1.7l1.6-.4c2.3-.6 4.6-1.2 6.9-1.9l1.1-.3c2.5-.7 4.9-1.4 7.3-2.15l1-.3c2.4-.8 4.9-1.6 7.3-2.4.35-.1.7-.2 1.06-.4 2.4-.8 4.8-1.6 7.2-2.5l.6-.2c2.5-.9 5-1.85 7.44-2.8l.5-.2c2.5-1 5.05-2 7.54-3.1l4.4-1.9-.3-10.8-.25.1-.1.03c-2.4 1.1-4.96 2.2-7.47 3.25l-.3.1c-2.3 1-4.7 2-7.3 3-.2.1-.3.1-.4.2l-.2.05c-2.2.9-4.56 1.8-7.2 2.8h-.03l-.3.1-.2.1-7 2.4-.6.2-.4.12c-2.1.7-4.34 1.4-7.1 2.3l-.65.2c-.1.02-.26.1-.4.1l-7 2.1-.76.2-.4.1c-2.3.62-4.6 1.25-6.7 1.8l-.8.2c-.2.1-.5.14-.7.2-2.3.6-4.7 1.2-6.6 1.6l-.9.2c-.3.1-.5.15-.8.2-2.2.5-4.4 1-6.5 1.44l-1 .2-.88.2c-2.02.4-4.12.8-6.5 1.22l-1 .2-.95.2c-2.1.34-4.3.7-6.4 1l-1.04.17-1.1.2-4.6.6-1 .1-1.24.12-1.8.26-4.1.42-1.4.15-1.4.1-1.8.2c-1.6.15-3.24.3-5 .43l-.73.08-1.3.1-1.7.1-4.5.3-1.2.07h-1.5l-1.7.1c-2.04.1-4.1.2-6.3.24h-.23l-1.2.03h-1c-3 .04-6 .1-8.94.1-2.9 0-5.9-.06-8.8-.1l-1.9-.1-1.5-.05-1.1-.05-4.43-.16-2.4-.17-1.6-.1-1.5-.1-3.3-.2-3-.3-1.4-.1-1.33-.1-2.9-.27-3.1-.3-1.4-.13-1.3-.17-2.7-.3-3.5-.46-1.3-.2-1.34-.2-2.37-.3c-1.4-.2-2.77-.4-4.2-.7l-.87-.1-1.3-.24-2.1-.3c-1.5-.25-3-.53-4.5-.84l-.8-.1-1.2-.2-1.87-.4c-1.56-.3-3.1-.6-4.7-1l-.7-.16-1.17-.3-1.7-.3c-1.87-.4-3.76-.8-5.57-1.3l-1.3-.3-1.43-.3-5.7-1.54-1-.3-1.4-.4c-2.04-.58-4.1-1.2-5.86-1.7l-1-.3-1.1-.37c-2-.6-4-1.3-5.94-1.9l-.9-.3-1.1-.38c-2.14-.7-4.3-1.45-6.1-2.1l-.83-.3-1-.33c-1.8-.66-3.7-1.4-6.2-2.35l-.7-.3-.9-.3c-1.84-.7-3.84-1.5-6.3-2.5l-.7-.3-.7-.3c-1.84-.8-3.8-1.6-6.34-2.78l-.6-.2-.6-.3-6.4-3-.64-.3-.4-.2c-1.9-1-4.1-2-6.5-3.2l-.4-.2-.4-.3c-2-1-4.1-2.1-6.5-3.4l-.6-.3-.2-.1c-2.1-1.1-4.3-2.3-6.6-3.6l-.3-.15-.3-.2c-2.1-1.2-4.3-2.45-6.6-3.8l-.35-.2-.1-.1c-2.14-1.3-4.3-2.6-6.6-4.07l-.3-.2-.1-.05c-2.2-1.4-4.44-2.83-6.6-4.25l-.04-.03-.1-.03-.1-.1c-2.2-1.44-4.4-2.95-6.6-4.5l-.2-.1c-2.2-1.5-4.4-3.1-6.54-4.7h-.1c-2.17-1.6-4.3-3.25-6.47-4.9l-.2-.2c-41.1-31.9-74.9-72.9-98-118.9-11.8-23.5-20.92-48.4-27.05-74-6.35-26.3-9.55-53.5-9.55-80.85 0-68 19.8-133.8 57.14-190.3 26.5-40.1 75.44-90.24 125.6-115.07l17.92-19.4zm431.3 131.5"/><path d="M237.65 440.92c-41.73 36.26-120.84 48.23-200.06 60.15 69.2 12.27 153.3-2.7 203.7 43.86l-3.7-104zm-21-81.2l45.28-93.12C211.2 278.12 141.36 250.12 71.48 222 122 266.48 197.3 294.3 216.65 359.73zm-65.3 341.54c65.94-23.76 130.4-78.33 198.25-63.32l-58-87.55c-16.77 51.8-78.45 101.3-140.26 150.8zM350.9 885.1c38.2-49.02 61.24-122.22 118.5-140.83l-82.97-44.4c11.16 49.43-12.15 117.3-35.54 185.24zm404.93-361.44L698.3 611.5c55.55-7.05 127.8 26.43 200.1 60.02-49.96-48.06-128.1-81.83-142.57-147.86zM653.05 680.7l-79.55 50.9c47.05 15.2 91.94 70.3 136.82 125.47-21.5-58.7-70.97-116.24-57.27-176.37zM785.65 374l-3.14 104.02c44.1-33.6 123.8-40.63 203.7-47.6C918 413.87 833 423.57 785.8 374zm134.22-167.42c-54.74 12-115.35 56.07-162.72 27.67l23.52 101.42c24.3-50.35 81.7-89.73 139.2-129.1z" fill="#659D32"/><path d="M37.6 501.07c69.2 12.26 153.35-2.7 203.76 43.85l-.44-12.44c-36.7-28.23-90.88-30.82-136.38-33.24L61.7 497.4l-24.1 3.67zM71.48 222C122 266.48 197.3 294.3 216.65 359.73l6.32-13c-17.22-43.23-60.3-69.5-95.82-93.54l-27.03-19.8L71.48 222zm245.68 405.37c-31.85 0-71 19.87-108.87 39.08l-37 18.75-19.9 16.1c58.1-20.94 115.5-65.9 174.5-65.9l-8.9-8zM350.9 885.1c38.2-49.02 58.24-117.22 115.5-135.83l-8.4-4.5c-40.25 8.98-77 77.03-96.93 110.5L350.9 885.1zm345.63-59.6c-27.8-31.88-68.53-72.73-102.7-86.87l-9.33 5.97c47.05 15.2 80.94 57.3 125.82 112.47l-13.8-31.58zm202.5-613.1c-37.9 22.53-96.5 65.93-111.5 100.75l3.14 13.52c24.32-50.35 71.7-80.73 129.2-120.1M790.5 478.02c44.04-33.6 115.78-40.63 195.62-47.6l-32.16-6.04c-19.1.1-73.1 7.74-84.97 10.04-31.9 6.14-57.1 14.97-78.1 30.4l-.4 13.2zm85.1 173.7C833.5 630.2 774 606.6 725 610.28l-6.7 10.23c5.05-.6 10.25-.9 15.57-.9 53.14 0 98.8 21.5 164.52 52l-22.8-19.8z" fill="#618931"/></svg>