<?xml version="1.0" encoding="utf-8"?>
<!-- Generator: Adobe Illustrator 16.0.0, SVG Export Plug-In . SVG Version: 6.00 Build 0)  -->
<!DOCTYPE svg PUBLIC "-//W3C//DTD SVG 1.1//EN" "http://www.w3.org/Graphics/SVG/1.1/DTD/svg11.dtd">
<svg version="1.1" id="Layer_1" xmlns="http://www.w3.org/2000/svg" xmlns:xlink="http://www.w3.org/1999/xlink" x="0px" y="0px"
	 width="256px" height="256px" viewBox="0 0 256 256" enable-background="new 0 0 256 256" xml:space="preserve">
<g id="nwayo" transform="matrix(0.8946611,-0.44674548,0.44674548,0.8946611,161.18269,49.599542)">
	
		<ellipse transform="matrix(0.997 -0.0769 0.0769 0.997 -3.9902 -4.537)" fill="#42210B" cx="-60.909" cy="49.545" rx="76.738" ry="76.347"/>
	<path fill="#DECD87" d="M-77.34-25.664c-1.617-3.194,2.073-7.462-2.749-12.072c-9.658,10.707-20.014,25.342-25.812,40.013
		c-19.58,49.546-10.412,104.94,32.627,122.525c0.482,0.017,0.968,0.017,1.451,0.022C-130.368,92.842-114.606,3.857-77.34-25.664z"/>
	<path fill="#DECD87" d="M20.824,10.882c-6.677-0.494-7.896,5.453-8.963,7.194c-1.435,41.266-42.274,93.741-100.602,96.192
		C-47.693,142.237-3.396,79.58,8.454,56.861C15.458,42.726,19.368,25.23,20.824,10.882z"/>
	<path fill="#486D15" d="M-69.915,123.69c-37.175-10.809-54.544-60.992-39.427-111.167c6.219-20.639,17.779-35.882,29.723-50.193
		c-32.387,3.244-61.717,26.614-72.06,60.949c-13.421,44.548,10.197,90.683,52.75,103.054c15.196,4.42,30.751,3.933,45.084-0.548
		C-59.244,125.904-64.634,125.226-69.915,123.69z"/>
	<path fill="#486D15" d="M20.369,10.329c-1.146,17.689-7.343,37.039-18.746,55.357c-13.477,20.669-54.002,51.973-88.512,51.035
		c-1.963,0.925-7.877,6.307-10.539,9.81c34.728,29.096,82.877,11.089,118.032-25.511C39.577,70.545,38.414,34.614,20.369,10.329z"/>
	<g>
		
			<linearGradient id="SVGID_1_" gradientUnits="userSpaceOnUse" x1="-899.581" y1="1128.6501" x2="-819.239" y2="1128.6501" gradientTransform="matrix(0.1409 0.1899 0.1861 -0.1901 -228.8686 400.7655)">
			<stop  offset="0" style="stop-color:#ABC837"/>
			<stop  offset="0.5" style="stop-color:#77A02C"/>
			<stop  offset="1" style="stop-color:#486D15"/>
		</linearGradient>
		<path fill="url(#SVGID_1_)" d="M-118.117,12.196c-13.416,3.676-32.355-2.356-51.313-8.413
			c13.971,10.486,34.37,16.392,40.245,32.645L-118.117,12.196z"/>
		
			<linearGradient id="SVGID_2_" gradientUnits="userSpaceOnUse" x1="-1530.0884" y1="546.2421" x2="-1449.7563" y2="546.2421" gradientTransform="matrix(0.0209 0.2338 0.2423 -0.0816 -216.7913 367.3075)">
			<stop  offset="0" style="stop-color:#ABC837"/>
			<stop  offset="0.5" style="stop-color:#77A02C"/>
			<stop  offset="1" style="stop-color:#486D15"/>
		</linearGradient>
		<path fill="url(#SVGID_2_)" d="M-113.495-8.727l20.707-16.305c-12.585-2.99-24.895-17.148-37.201-31.338
			C-123.852-40.58-110.311-25.854-113.495-8.727z"/>
		
			<linearGradient id="SVGID_3_" gradientUnits="userSpaceOnUse" x1="-52.2914" y1="1393.4469" x2="28.0477" y2="1393.4469" gradientTransform="matrix(0.2181 0.0912 0.0628 -0.2584 -216.715 424.9256)">
			<stop  offset="0" style="stop-color:#ABC837"/>
			<stop  offset="0.5" style="stop-color:#77A02C"/>
			<stop  offset="1" style="stop-color:#486D15"/>
		</linearGradient>
		<path fill="url(#SVGID_3_)" d="M-167.06,62.247c17.366,1.873,37.92-3.476,51.277,7.488l-2.871-26.485
			C-128.305,53.266-147.669,57.764-167.06,62.247z"/>
		
			<linearGradient id="SVGID_4_" gradientUnits="userSpaceOnUse" x1="797.1044" y1="1344.4741" x2="877.4246" y2="1344.4741" gradientTransform="matrix(0.2055 -0.0347 -0.0606 -0.2333 -206.6764 453.2219)">
			<stop  offset="0" style="stop-color:#ABC837"/>
			<stop  offset="0.5" style="stop-color:#77A02C"/>
			<stop  offset="1" style="stop-color:#486D15"/>
		</linearGradient>
		<path fill="url(#SVGID_4_)" d="M-143.762,126.484c14.092-6.992,27.583-21.2,42.433-19.11l-13.354-19.369
			C-117.859,100.561-130.797,113.522-143.762,126.484z"/>
		
			<linearGradient id="SVGID_5_" gradientUnits="userSpaceOnUse" x1="-720.4458" y1="1224.2886" x2="-640.1081" y2="1224.2886" gradientTransform="matrix(0.092 0.1315 0.1282 -0.228 -249.2483 413.4361)">
			<stop  offset="0" style="stop-color:#ABC837"/>
			<stop  offset="0.5" style="stop-color:#77A02C"/>
			<stop  offset="1" style="stop-color:#486D15"/>
		</linearGradient>
		<path fill="url(#SVGID_5_)" d="M-147.697,53.35l5.73-24.355c-9.09,7.305-19.661,6.413-32.336,6.486
			C-165.055,40.912-151.408,40.278-147.697,53.35z"/>
		
			<linearGradient id="SVGID_6_" gradientUnits="userSpaceOnUse" x1="-1531.4221" y1="611.3187" x2="-1451.087" y2="611.3186" gradientTransform="matrix(0.0229 0.1945 0.2214 -0.1525 -238.549 377.9865)">
			<stop  offset="0" style="stop-color:#ABC837"/>
			<stop  offset="0.5" style="stop-color:#77A02C"/>
			<stop  offset="1" style="stop-color:#486D15"/>
		</linearGradient>
		<path fill="url(#SVGID_6_)" d="M-135.144,8.544l18.771-21.075c-11.615,1.689-23.152-6.346-34.688-14.409
			C-145.168-15.407-132.491-7.3-135.144,8.544z"/>
		
			<linearGradient id="SVGID_7_" gradientUnits="userSpaceOnUse" x1="900.1768" y1="1633.2599" x2="980.5318" y2="1633.2599" gradientTransform="matrix(0.1444 0.0527 -0.0257 -0.247 -236.2987 441.8065)">
			<stop  offset="0" style="stop-color:#ABC837"/>
			<stop  offset="0.5" style="stop-color:#77A02C"/>
			<stop  offset="1" style="stop-color:#486D15"/>
		</linearGradient>
		<path fill="url(#SVGID_7_)" d="M-162.828,91.158c10.225-0.767,20.537-8.639,30.651-0.461l-8.968-22.072
			C-144.213,79.229-152.967,84.251-162.828,91.158z"/>
		
			<linearGradient id="SVGID_8_" gradientUnits="userSpaceOnUse" x1="1233.9755" y1="-543.1968" x2="1314.3187" y2="-543.1969" gradientTransform="matrix(-0.0089 -0.2363 -0.2609 0.0516 -141.6432 434.747)">
			<stop  offset="0" style="stop-color:#ABC837"/>
			<stop  offset="0.5" style="stop-color:#77A02C"/>
			<stop  offset="1" style="stop-color:#486D15"/>
		</linearGradient>
		<path fill="url(#SVGID_8_)" d="M-12.484,88.617l-22.825,13.735c13.145,4.549,25.363,20.229,37.579,35.939
			C-3.328,121.745-16.82,105.344-12.484,88.617z"/>
		
			<linearGradient id="SVGID_9_" gradientUnits="userSpaceOnUse" x1="1577.1831" y1="94.1546" x2="1657.5012" y2="94.1546" gradientTransform="matrix(0.0842 -0.1994 -0.2278 -0.0551 -173.6355 455.4377)">
			<stop  offset="0" style="stop-color:#ABC837"/>
			<stop  offset="0.5" style="stop-color:#77A02C"/>
			<stop  offset="1" style="stop-color:#486D15"/>
		</linearGradient>
		<path fill="url(#SVGID_9_)" d="M-53.271,113.184l-23.49,2.834c8.711,8.702,12.382,26.293,16.039,43.909
			C-58.785,144.1-63.19,125.435-53.271,113.184z"/>
		
			<linearGradient id="SVGID_10_" gradientUnits="userSpaceOnUse" x1="623.1324" y1="-1169.8663" x2="703.4505" y2="-1169.8663" gradientTransform="matrix(-0.1284 -0.1985 -0.1979 0.1776 -125.3218 411.1627)">
			<stop  offset="0" style="stop-color:#ABC837"/>
			<stop  offset="0.5" style="stop-color:#77A02C"/>
			<stop  offset="1" style="stop-color:#486D15"/>
		</linearGradient>
		<path fill="url(#SVGID_10_)" d="M11.257,57.651L-1.34,81.123c13.622-2.809,32.139,4.423,50.669,11.682
			C36.06,81.446,16.08,74.244,11.257,57.651z"/>
		
			<linearGradient id="SVGID_11_" gradientUnits="userSpaceOnUse" x1="205.0638" y1="-1350.8734" x2="285.384" y2="-1350.8734" gradientTransform="matrix(-0.1477 -0.1072 -0.1362 0.2441 -115.7825 385.7926)">
			<stop  offset="0" style="stop-color:#ABC837"/>
			<stop  offset="0.5" style="stop-color:#77A02C"/>
			<stop  offset="1" style="stop-color:#486D15"/>
		</linearGradient>
		<path fill="url(#SVGID_11_)" d="M60.212,34.195c-13.531-3.325-32.033,0.048-39.307-11.71l-6.372,25.835
			C25.689,39.486,42.941,36.832,60.212,34.195z"/>
		
			<linearGradient id="SVGID_12_" gradientUnits="userSpaceOnUse" x1="1651.9346" y1="-580.1376" x2="1750.7548" y2="-580.3902" gradientTransform="matrix(-0.0015 -0.1605 -0.2347 0.1155 -113.7264 442.8351)">
			<stop  offset="0" style="stop-color:#ABC837"/>
			<stop  offset="0.5" style="stop-color:#77A02C"/>
			<stop  offset="1" style="stop-color:#486D15"/>
		</linearGradient>
		<path fill="url(#SVGID_12_)" d="M18.711,93.225L0.216,110.08c11.629-0.89,19.848,5.82,30.345,12.923
			C26.002,113.294,14.383,106.105,18.711,93.225z"/>
		
			<linearGradient id="SVGID_13_" gradientUnits="userSpaceOnUse" x1="2038.5842" y1="225.828" x2="2118.905" y2="225.8279" gradientTransform="matrix(0.0839 -0.1601 -0.2457 0.0019 -147.694 466.9325)">
			<stop  offset="0" style="stop-color:#ABC837"/>
			<stop  offset="0.5" style="stop-color:#77A02C"/>
			<stop  offset="1" style="stop-color:#486D15"/>
		</linearGradient>
		<path fill="url(#SVGID_13_)" d="M-23.129,122.969l-25.064,6.374c9.603,4.711,14.089,16.796,18.56,28.901
			C-28.06,146.409-33.366,133.679-23.129,122.969z"/>
		
			<linearGradient id="SVGID_14_" gradientUnits="userSpaceOnUse" x1="267.4197" y1="-1433.2657" x2="345.9738" y2="-1433.2657" gradientTransform="matrix(-0.0893 -0.1251 -0.1184 0.2182 -107.4051 407.0053)">
			<stop  offset="0" style="stop-color:#ABC837"/>
			<stop  offset="0.5" style="stop-color:#77A02C"/>
			<stop  offset="1" style="stop-color:#486D15"/>
		</linearGradient>
		<path fill="url(#SVGID_14_)" d="M27.597,47.663l-5.076,23.279c8.524-7.015,18.583-6.21,30.623-6.336
			C44.275,59.46,31.319,60.127,27.597,47.663z"/>
	</g>
</g>
<g>
</g>
<g>
</g>
<g>
</g>
<g>
</g>
<g>
</g>
<g>
</g>
<g>
</g>
<g>
</g>
<g>
</g>
<g>
</g>
<g>
</g>
<g>
</g>
<g>
</g>
<g>
</g>
<g>
</g>
</svg>
